<?xml version="1.0" standalone="no"?>
<!DOCTYPE svg PUBLIC "-//W3C//DTD SVG 1.1//EN" "http://www.w3.org/Graphics/SVG/1.1/DTD/svg11.dtd" >
<svg>
<metadata>
Created by FontForge 20110222 at Mon Mar  7 10:41:28 2011
 By www-data
Mseek Font Creator, 2007
</metadata>
<defs>
<font id="CarribeanIsland" horiz-adv-x="1024" >
  <font-face 
    font-family="Caribbean Island"
    font-weight="400"
    font-stretch="normal"
    units-per-em="2048"
    panose-1="2 2 6 3 5 4 5 2 3 4"
    ascent="1638"
    descent="-410"
    x-height="1124"
    cap-height="1405"
    bbox="-670 -442 2705 1854.97"
    underline-thickness="100"
    underline-position="-173"
    unicode-range="U+0020-2122"
  />
    <missing-glyph />
    <glyph glyph-name="Space" unicode=" " horiz-adv-x="442" 
 />
    <glyph glyph-name="exclam" unicode="!" horiz-adv-x="438" 
d="M278 1286q-22 -173 -22 -189q0 -41 9 -76q0 -24 -21 -67t-21 -65q0 -13 4 -26q14 -18 14 -42q0 -2 -14 -74q-32 -46 -32 -55q0 -11 6 -20q22 -24 22 -52q0 -22 -15.5 -63.5t-17.5 -61.5q-11 -33 -22 -63q-13 -40 -48 -46q-70 10 -70 83q0 19 5.5 63t5.5 64q0 30 -7 50
q-32 97 0 208q-35 127 -35 237q0 44 7 81q-22 74 -22 68q0 13 9 26q28 15 100.5 18.5t102.5 25.5h38q22 -2 24 -24zM216 151q7 -61 -26 -107q-55 -48 -94 -44q-44 4 -61 68q-5 11 -5 26q0 22 22 70q33 31 72 40q77 -7 92 -53z" />
    <glyph glyph-name="quotedbl" unicode="&#x22;" horiz-adv-x="836" 
d="M576 803l-54 292l-22 121q-2 25 -2 50q0 63 28 92t74 29q43 0 71.5 -29t28.5 -78q0 -85 -19 -184l-57 -293h-48zM210 803l-55 296q-22 122 -22 166q0 64 26.5 93t71.5 29q44 0 73 -29.5t29 -78.5q0 -39 -26 -181l-54 -295h-43z" />
    <glyph glyph-name="numbersign" unicode="#" 
d="M115 -28l93 455h-171v82h187l69 343h-256v80h275l91 455h83l-91 -455h337l97 455h83l-95 -455h170v-80h-185l-70 -343h255v-82h-272l-93 -455h-81l91 455h-339l-95 -455h-83zM308 509h339l72 343h-341z" />
    <glyph glyph-name="dollar" unicode="$" horiz-adv-x="933" 
d="M776 583q-37 -44 -37 -49q0 -11 13 -24q-9 -37 -21 -76.5t-45 -54.5q-24 9 -50.5 58t-26.5 76q0 8 3 17q-31 2 -77 36t-77 34q-11 0 -24 -4q-13 -18 -13 -55q0 -9 2 -26v-27q0 -48 -28 -59q-5 -8 -5 -17q0 -18 36 -55q0 2 -3 -57q0 -35 24 -44q40 0 93.5 54t88.5 54
q16 0 31 -7q6 -42 -31 -78t-72 -69q-31 -22 -123 -11q-11 -17 -11 -41q0 -11 2.5 -33t2.5 -33q0 -31 -18 -48q2 0 -52 -2q-33 0 -40 24q-4 13 -2 41q4 38 4 44q0 44 -37 48q-39 -15 -131 -4q-84 11 -125 -13q-20 0 -26 13q-5 9 0 26q4 27 4 29q17 22 17 59q0 41 -21 85
q-7 27 26 48q61 -2 74 -35q7 -50 73 -116q22 5 57 -7t52 -12q11 0 22 2q39 22 39 52q0 24 -26 42q2 2 -2 79q0 50 22 74q-13 33 -31 103q-22 18 -82 17t-82 27q-11 -2 -20 -2q-22 0 -39.5 18.5t-32.5 38.5q-35 52 -35 127q0 118 72 217q22 11 31 4q6 -15 6 -33
q0 -17 -8.5 -51t-8.5 -52q0 -33 22 -54q11 -46 68 -55q74 -11 87 -20l18 2q4 18 4 114q-2 72 29 103q4 11 4 18q0 11 -18.5 19.5t-16.5 26.5q-15 15 -33 15q-11 0 -34 -11t-32 -11q-19 0 -30 29q2 39 61 52q18 4 59 4q7 18 10 66t17 64l83 -16q2 -37 4 -76q5 -48 40 -51
q19 -6 43 -6q22 0 66 8.5t64 8.5q37 0 65 -22v-135q-2 -75 -48 -112q-37 -2 -48 46q-13 57 -37 70q-16 4 -62 48q-35 35 -70 26q-8 -11 -8 -35v-19q2 -13 2 -20q0 -39 -33 -44q-4 -6 -4 -13q0 -13 17.5 -35t21.5 -31q0 -59 2 -70q7 -39 40 -39q8 0 19 2q2 0 99 -4
q59 -3 85 -35q13 8 27 8q17 0 59 -24q43 -63 26 -144z" />
    <glyph glyph-name="percent" unicode="%" horiz-adv-x="2337" 
d="M2184 432q-26 -29 -53 -136q-22 -88 -76 -112q-20 -15 -18 -61q-96 -136 -333 -136q-37 0 -190 9q-95 24 -173.5 90.5t-100.5 154.5q11 15 11 33q0 17 -16 41q-24 38 -26 40q-4 28 -4 57q0 79 81 267q26 4 35 35q15 42 20 48q173 151 286 151q27 0 53 -6v-22
q-18 -20 -90 -48q-61 -24 -79 -57q-43 -29 -60.5 -114.5t-48.5 -111.5q13 -166 15 -173q16 -98 66 -151q87 -160 256 -173q99 -7 221 140q60 97 60 184q0 46 -18 88q-26 153 -31 164q-28 92 -105 118q-11 9 -136 99q-2 17 15.5 26t33.5 18q103 4 192.5 -37.5t133.5 -120.5
q81 -112 81 -243q0 -29 -2 -61zM1682 1384q-114 -61 -221 -219q-85 -129 -169 -256q-57 -50 -89 -182q-88 -33 -160 -129q-62 -83 -125 -166q-46 -77 -180 -246q-123 -153 -171 -243q-22 11 -44 11q-19 0 -56.5 -12t-59.5 -12q-17 0 -35 4q-6 9 0 48q149 57 281 211
q105 138 212 278q11 20 112 153q63 86 85 165q103 50 193 188q110 169 162 215q22 46 26 52q18 26 44 44q7 39 17 82t42 54q20 -24 86 -5q50 16 50 -35zM959 883q-13 -24 -27 -84.5t-34 -84.5q-46 -9 -67 -78t-53 -84q-121 -83 -305 -83q-182 0 -311 81q-134 114 -118 225
q-44 55 -44 138q0 103 68 244q20 17 39.5 39t12.5 48q165 178 342 162q7 -46 -50 -65q-79 -25 -92 -40q-59 -24 -79 -123q-24 -111 -59 -142q13 -31 22 -118q6 -79 30 -116q-2 -24 25.5 -54t27.5 -54q109 -144 261 -151q105 9 212 160q50 68 50 164q0 68 -26 165
q-24 79 -48 157q-66 55 -204 138q-15 11 -13 31q46 31 99 31q52 0 125 -35q59 -33 118 -64q118 -116 118 -285q0 -61 -20 -122z" />
    <glyph glyph-name="ampersand" unicode="&#x26;" horiz-adv-x="1458" 
d="M935 977q-37 -2 -67.5 14.5t-28.5 51.5q-26 116 -136 146q-35 16 -120 14q-77 0 -110 19q-15 -11 -69 -17.5t-73 -34.5q-68 -3 -97 17q-4 11 -4 22q0 33 28 68q22 28 46 55q136 19 246 19q177 0 304 -48l66 -65q2 -25 26 -92q22 -60 22 -92q0 -46 -33 -77zM1312 835
q4 -27 4 -53q0 -96 -59 -142q-11 -38 -61 -60q-18 -8 -94 -28q-27 13 -57 13q-29 0 -72 -13q-60 -15 -71 -18q-76 -48 -168 -48q-46 0 -88 13q-24 42 0 86q31 24 61.5 51.5t28.5 62.5q33 -2 63.5 14t61.5 34q50 13 107 13q53 0 215 -28q44 26 26 107q-28 24 -26 68v81
q17 26 48 26q28 0 49 -17.5t21 -43.5q0 -18 -12 -45t-12 -38q0 -22 35 -35zM1071 353l-26 -147q-22 -7 -45 -48.5t-45 -41.5q-13 0 -26 7q-20 -20 -77 -57q-50 -57 -153 -66q-90 -7 -182 -13q-241 -5 -359 72q-2 64 -40 70q-13 -4 -28 -4q-59 0 -68 50q-22 20 -22 44
q0 18 17.5 53t17.5 50q0 22 -22 39q-2 79 51 149q15 24 105 116q131 33 146 119q-8 4 -21 4q-16 0 -44.5 -6.5t-43.5 -6.5q-29 0 -48 17q-105 90 -143 152q11 50 24.5 103.5t48.5 77.5q6 40 52 49q68 4 121 -73q-13 -105 -13 -103q0 -54 28 -86t108 -34t109 -29
q24 0 66.5 -13t66.5 -13q14 0 27 2q4 -11 4 -24q0 -22 -37 -54.5t-35 -61.5q-26 -4 -86 -31q-50 -21 -87 -21q-112 -97 -97 -265q3 -38 57.5 -53t56.5 -55q35 -28 81 -28q18 0 77 11q48 8 81 4q29 35 90 35q9 0 31 -2h30q75 0 97 59q13 15 32 114q16 77 57 77q20 0 49 -16
q8 -11 8 -30q0 -9 -2 -26.5t-2 -28.5q0 -24 13 -37z" />
    <glyph glyph-name="quotesingle" unicode="'" horiz-adv-x="369" 
d="M158 803l-54 296q-23 123 -23 166q0 64 26 93t71 29t74.5 -29.5t29.5 -77.5q0 -37 -26 -182l-54 -295h-44z" />
    <glyph glyph-name="parenleft" unicode="(" horiz-adv-x="368" 
d="M382 -131l-84 201q-108 262 -137 616l-8 105l-2 118q-6 400 156 678q-66 -78 -121 -188q-158 -316 -158 -711q0 -264 262 -696z" />
    <glyph glyph-name="parenright" unicode=")" horiz-adv-x="419" 
d="M348 688q0 201 -47 406q-76 325 -231 493q20 -31 34.5 -59.5t24.5 -54.5q102 -265 96 -560l-2 -116l-8 -111q-8 -113 -19.5 -196.5t-25.5 -139.5q-41 -153 -92 -280l-78 -187v-14l86 123q100 137 176 332q86 217 86 364z" />
    <glyph glyph-name="plus" unicode="+" horiz-adv-x="866" 
d="M823 729q0 23 -24 23l-27 -9q-78 -22 -178 -22h-88q0 119 6 178q10 90 53 137q15 15 15 29q0 18 -17 18q-6 0 -39 -16l-110 -57q-90 -47 -90 -62q30 -74 30 -123v-104h-88q-22 0 -39.5 1t-31.5 3q-23 10 -38.5 17.5t-23.5 11.5q-14 0 -43 -90q-45 -142 -45 -152
q0 -16 18 -16q5 2 9 4l8 4q74 51 133 61q16 2 51 3t90 1v-84q0 -75 -6 -133q0 -14 -12 -59q-12 -43 -12 -64q0 -24 22 -24q14 0 39 24q57 58 123 80q41 17 41 29q-2 8 -8 14q-33 39 -33 64q-2 2 -2 71v82h51q66 0 88 -16q39 -29 47 -29q21 0 33 43q14 51 76 121q22 29 22 41
z" />
    <glyph glyph-name="comma" unicode="," horiz-adv-x="360" 
d="M257 25q0 24 -20.5 46.5t-53.5 22.5q-51 0 -77 -63l-68 -154v-20h29q45 32 70.5 51.5t35.5 25.5q84 60 84 91z" />
    <glyph glyph-name="hyphen" unicode="-" horiz-adv-x="747" 
d="M669 805l-37 6q-37 -43 -47 -47q-21 -21 -57 -21l-17 2l-57 19l-72 29l-88 16h-14q-64 0 -127.5 -63.5t-77.5 -127.5q2 27 41 27q22 0 71.5 -16.5t69.5 -16.5q25 0 107 -45q6 -2 11 -4t9 -4l62 -12h12q63 0 131 78q61 67 72 139l6 18z" />
    <glyph glyph-name="hyphen" unicode="&#xad;" horiz-adv-x="747" 
d="M669 805l-37 6q-37 -43 -47 -47q-21 -21 -57 -21l-17 2l-57 19l-72 29l-88 16h-14q-64 0 -127.5 -63.5t-77.5 -127.5q2 27 41 27q22 0 71.5 -16.5t69.5 -16.5q25 0 107 -45q6 -2 11 -4t9 -4l62 -12h12q63 0 131 78q61 67 72 139l6 18z" />
    <glyph glyph-name="period" unicode="." horiz-adv-x="299" 
d="M233 147q0 43 -33 72t-76 29q-98 0 -98 -113q0 -39 12 -78q15 -57 45 -57q37 0 93 55q57 56 57 92z" />
    <glyph glyph-name="slash" unicode="/" horiz-adv-x="339" 
d="M319 1061q-133 -133 -182 -623q0 -104 -35 -239q-32 -93 -57 -159.5t-45 -113.5l45 49q70 95 117 213q39 99 55 226q4 55 8 110.5t8 110.5q19 217 86 426z" />
    <glyph glyph-name="zero" unicode="0" 
d="M74 670q0 232 70 399.5t186 249.5q90 65 186 65q156 0 280 -159q155 -197 155 -534q0 -236 -68 -401t-173.5 -239.5t-203.5 -74.5q-194 0 -323 229q-109 193 -109 465zM270 645q0 -280 69 -457q57 -149 170 -149q54 0 112 48.5t88 162.5q46 172 46 485q0 232 -48 387
q-36 115 -93 163q-41 33 -99 33q-68 0 -121 -61q-72 -83 -98 -261t-26 -351z" />
    <glyph glyph-name="one" unicode="1" 
d="M240 1223l330 161h33v-1145q0 -114 9.5 -142t39.5 -43t122 -17v-37h-510v37q96 2 124 16.5t39 39t11 146.5v732q0 148 -10 190q-7 32 -25.5 47t-44.5 15q-37 0 -103 -31z" />
    <glyph glyph-name="two" unicode="2" 
d="M939 261l-95 -261h-800v37q353 322 497 526t144 373q0 129 -79 212t-189 83q-100 0 -179.5 -58.5t-117.5 -171.5h-37q25 185 128.5 284t258.5 99q165 0 275.5 -106t110.5 -250q0 -103 -48 -206q-74 -162 -240 -343q-249 -272 -311 -328h354q108 0 151.5 8t78.5 32.5
t61 69.5h37z" />
    <glyph glyph-name="three" unicode="3" 
d="M104 1098q58 137 146.5 211.5t220.5 74.5q163 0 250 -106q66 -79 66 -169q0 -148 -186 -306q125 -49 189 -140t64 -214q0 -176 -112 -305q-146 -168 -423 -168q-137 0 -186.5 34t-49.5 73q0 29 23.5 51t56.5 22q25 0 51 -8q17 -5 77 -36.5t83 -37.5q37 -11 79 -11
q102 0 177.5 79t75.5 187q0 79 -35 154q-26 56 -57 85q-43 40 -118 72.5t-153 32.5h-32v30q79 10 158.5 57t115.5 113t36 145q0 103 -64.5 166.5t-160.5 63.5q-155 0 -259 -166z" />
    <glyph glyph-name="four" unicode="4" 
d="M953 500v-142h-182v-358h-165v358h-574v128l629 898h110v-884h182zM606 500v673l-476 -673h476z" />
    <glyph glyph-name="five" unicode="5" 
d="M889 1356l-78 -170h-408l-89 -182q265 -39 420 -197q133 -136 133 -320q0 -107 -43.5 -198t-109.5 -155t-147 -103q-115 -55 -236 -55q-122 0 -177.5 41.5t-55.5 91.5q0 28 23 49.5t58 21.5q26 0 45.5 -8t66.5 -41q75 -52 152 -52q117 0 205.5 88.5t88.5 215.5
q0 123 -79 229.5t-218 164.5q-109 45 -297 52l260 527h486z" />
    <glyph glyph-name="six" unicode="6" 
d="M918 1384v-37q-132 -13 -215.5 -52.5t-165 -120.5t-135 -180.5t-89.5 -236.5q144 99 289 99q139 0 241 -112t102 -288q0 -170 -103 -310q-124 -170 -328 -170q-139 0 -236 92q-190 179 -190 464q0 182 73 346t208.5 291t259.5 171t231 44h58zM296 684q-18 -135 -18 -218
q0 -96 35.5 -208.5t105.5 -178.5q51 -47 124 -47q87 0 155.5 82t68.5 234q0 171 -68 296t-193 125q-38 0 -81.5 -16t-128.5 -69z" />
    <glyph glyph-name="seven" unicode="7" 
d="M206 1356h727v-38l-452 -1346h-112l405 1221h-373q-113 0 -161 -27q-84 -46 -135 -142l-29 11z" />
    <glyph glyph-name="eight" unicode="8" 
d="M393 683q-161 132 -207.5 212t-46.5 166q0 132 102 227.5t271 95.5q164 0 264 -89t100 -203q0 -76 -54 -155t-225 -186q176 -136 233 -214q76 -102 76 -215q0 -143 -109 -244.5t-286 -101.5q-193 0 -301 121q-86 97 -86 212q0 90 60.5 178.5t208.5 195.5zM550 790
q120 108 152 170.5t32 141.5q0 105 -59 164.5t-161 59.5t-166 -59t-64 -138q0 -52 26.5 -104t75.5 -99zM440 645q-83 -70 -123 -152.5t-40 -178.5q0 -129 70.5 -206.5t179.5 -77.5q108 0 173 61t65 148q0 72 -38 129q-71 106 -287 277z" />
    <glyph glyph-name="nine" unicode="9" 
d="M108 -28v37q130 2 242 60.5t216.5 204.5t145.5 321q-157 -101 -284 -101q-143 0 -245 110.5t-102 293.5q0 178 102 317q123 169 321 169q167 0 286 -138q146 -171 146 -422q0 -226 -111 -421.5t-309 -324.5q-161 -106 -351 -106h-57zM728 669q18 130 18 208
q0 97 -33 209.5t-93.5 172.5t-137.5 60q-89 0 -156 -80t-67 -238q0 -211 89 -330q65 -86 160 -86q46 0 109 22t111 62z" />
    <glyph glyph-name="colon" unicode=":" horiz-adv-x="299" 
d="M253 758q0 39 -30.5 68.5t-77.5 29.5q-43 0 -71 -31.5t-28 -81.5q0 -38 13 -77q14 -58 45 -58q39 0 94 55.5t55 94.5zM233 147q0 43 -33 72t-76 29q-98 0 -98 -113q0 -39 12 -78q15 -57 45 -57q37 0 93 55q57 56 57 92z" />
    <glyph glyph-name="semicolon" unicode=";" horiz-adv-x="299" 
d="M317 758q0 41 -33 69.5t-76 28.5q-98 0 -98 -113q0 -49 18.5 -92t38.5 -43q37 0 93 56q57 57 57 94zM278 115q0 30 -29.5 58t-60.5 28q-51 0 -88 -131q-58 -197 -78 -238v-22h33q22 22 53 58t72 87q100 125 98 160z" />
    <glyph glyph-name="semicolon" unicode="&#x37e;" horiz-adv-x="299" 
d="M317 758q0 41 -33 69.5t-76 28.5q-98 0 -98 -113q0 -49 18.5 -92t38.5 -43q37 0 93 56q57 57 57 94zM278 115q0 30 -29.5 58t-60.5 28q-51 0 -88 -131q-58 -197 -78 -238v-22h33q22 22 53 58t72 87q100 125 98 160z" />
    <glyph glyph-name="equal" unicode="=" horiz-adv-x="866" 
d="M823 879q0 20 -24 20l-29 -6q-55 -29 -246 -25l-319 2q-29 7 -54 25q-12 6 -18 6q-14 0 -43 -90l-35 -113l-10 -36q0 -19 18 -19q13 4 25 14q57 50 133 58q19 2 55.5 3t92.5 1h106l88 2q62 2 82 -19q27 -26 47 -26q17 0 33 41q20 65 76 121q22 22 22 41zM823 580
q0 22 -24 22l-29 -6q-53 -29 -246 -25l-319 2q-25 11 -43.5 19t-28.5 12q-14 0 -43 -90l-35 -113l-10 -36q0 -19 18 -19q17 6 21 10q57 45 100 54q148 12 185 12h106q148 0 170 -19q33 -26 47 -26q21 0 33 43q18 63 76 121q22 22 22 39z" />
    <glyph glyph-name="question" unicode="?" horiz-adv-x="971" 
d="M925 977q2 -11 2 -24q0 -33 -32 -84.5t-32 -84.5q0 -13 2 -28q-32 -66 -68 -134q-43 -77 -109 -99q-50 -83 -188 -83h-42h-42q-83 0 -131 -22q-13 -6 -55 -50q-33 -33 -61 -33q-13 0 -26.5 7.5t-13.5 25.5q0 2 16 50q52 79 224 95.5t231 93.5q35 48 38 149q0 109 26 151
q-5 28 -46 92q-37 57 -33 98q-26 14 -94 75q-53 46 -105 50q-22 13 0 53q48 30 125 4q10 -9 31 -44t47 -39q40 -9 46.5 37t41.5 42q138 -2 195 -59q2 -5 26 -44q18 -24 13 -48q-19 -18 -38 -36.5t-14 -49.5q24 -15 66 -61zM307 1262q4 -40 -46 -62q-61 -30 -70 -43
q-48 -29 -48 -77q0 -22 16 -72.5t16 -74.5t-13 -42q-19 -8 -44 -8q-46 0 -78 26q-42 46 -42 107q0 35 13 88q18 74 20 90q74 85 212 85q27 0 55 -4zM408 147q0 -73 -44 -101q-24 -2 -69 -18.5t-67 -16.5q-31 0 -59 22q-26 33 -26 74q0 29 13 55q63 53 120 61q57 -13 77 -21
q41 -20 55 -55z" />
    <glyph glyph-name="at" unicode="@" horiz-adv-x="1886" 
d="M1408 958l-117 -399q-65 -224 -79 -284t-14 -96q0 -32 21.5 -54t53.5 -22q73 0 175.5 73t175.5 237t73 342q0 171 -82.5 316t-233 222.5t-332.5 77.5q-231 0 -429 -122.5t-313.5 -352.5t-115.5 -478q0 -230 101.5 -418t285.5 -284.5t396 -96.5q263 0 475.5 141t328.5 412
h58q-90 -274 -327 -444t-540 -170q-238 0 -442 112.5t-317 319t-113 454.5q0 264 124 492.5t347.5 357t474.5 128.5q207 0 373.5 -85.5t253.5 -250t87 -349.5q0 -183 -81.5 -362.5t-207.5 -261.5t-263 -82q-76 0 -114.5 36t-38.5 101q0 56 18 147q-148 -179 -237 -232
t-157 -53q-71 0 -126 63.5t-55 169.5q0 145 94.5 325t250.5 293q115 83 206 83q67 0 111.5 -34.5t60.5 -103.5l33 110zM1057 917q-75 0 -152 -79q-113 -116 -193 -313q-59 -144 -59 -232q0 -63 35.5 -102.5t79.5 -39.5q58 0 122 44t134 135.5t102 183.5q56 159 56 259
q0 66 -36.5 105t-88.5 39z" />
    <glyph glyph-name="A" unicode="A" horiz-adv-x="1648" 
d="M1706 1377v-20q0 -42 -57 -42q-189 0 -189 -511l37 -408v-287q1 -71 227 -202l-57 -62h-757l-57 62l38 40h113l95 265l-18 122l18 165q0 56 -417 121h-171q0 -96 -208 -551q-332 -491 -853 -491l-75 41l38 104h227l95 81q76 0 76 61q71 76 114 244q57 287 113 287v81
l-38 62v19q0 42 57 42v62q0 67 -95 225q0 40 76 40q114 0 247 164q71 143 473 308h209l283 -22l247 41l19 -19l151 19zM1092 989q-18 245 -50 245h-18l-84 -24q-199 -108 -249 -310v-22q0 -49 383 -89h18l-18 111q0 67 34 67z" />
    <glyph glyph-name="B" unicode="B" horiz-adv-x="1603" 
d="M869 1437l105 -19h156l244 -129l103 -292q0 -253 -156 -253h-52v-66q296 -136 296 -442v-19q-64 -380 -417 -380l-140 -22h-104l-277 42h-227l-104 -20l-87 20h-53l-121 -20l-35 60v25q0 34 121 83l35 63l-17 20v22l36 43l-19 22v20l19 22v19l-19 63l35 66l-16 20v293
l-19 128l19 103v88l-36 61l17 148l-86 41l-53 -41l-17 22v105l70 85l401 -41l222 41v-22zM573 1172l-16 -314q0 -775 86 -775l156 -20l70 20l86 -20q107 0 158 376q-88 147 -158 190l-51 -24l-72 87h-84l-87 -22l-18 22v44l86 142l140 -42l68 22h52l53 128v102
q0 120 -278 149h-86z" />
    <glyph glyph-name="C" unicode="C" horiz-adv-x="1252" 
d="M968 1431l391 -21l61 -369l-19 -19h-42q-144 307 -371 307q-452 -70 -452 -246q-109 0 -124 -449q0 -523 618 -651h62q287 0 452 121l21 -19v-60q-84 -145 -535 -166q-377 0 -598 185l62 21v20q-256 0 -391 305v164q0 85 -103 204q45 0 187 264q235 409 781 409z" />
    <glyph glyph-name="D" unicode="D" horiz-adv-x="1858" 
d="M18 1437l149 -62l19 22h55v-22l706 62l150 -20l18 20h19l167 -62l18 22h19q482 -257 482 -736q0 -477 -241 -633q0 -143 -1152 -143q160 176 169 226v264l18 21l-18 19l18 144v224l18 20l-18 62l18 20v22q-29 204 -149 204v60h391l91 -20l19 20l18 -20v-20q0 -42 -74 -42
q-10 -217 -10 -428l37 -326l-37 -204q0 -48 288 -41h37q232 74 249 330l18 122l-18 103l18 82q-74 135 -92 305l-131 102h-37v40h55l33 59l-143 -37q-100 119 -267 119l-798 -82q-51 0 -130 142v22l18 20v20z" />
    <glyph glyph-name="E" unicode="E" horiz-adv-x="1258" 
d="M1220 289q-5 -62 -17 -176q-13 -31 -35 -86q-5 -24 -18 -67q-5 -14 -31 -44q-32 -38 -51 -38h-304q-9 0 -108.5 3t-108.5 3h-184q-8 0 -74.5 6.5t-74.5 6.5h-181l-15 18q13 16 105 71q61 40 61 96v378q0 91 30 247q-17 48 -7 118q-21 20 -21 53q0 1 23 96q2 10 -12 34
q-16 31 -18 31q-9 27 -9 80q2 74 2 81q-3 41 -16 66q-19 36 -59 53q-36 19 -73 35q18 39 37 41q36 -4 106 -2q77 18 75 18h213q3 0 71 -9t103 -9q15 -1 239 15q51 5 270 -6q19 -15 19 -33q0 -11 -8 -32t-8 -29q-1 -40 -24 -261q-5 -8 -35 -23q-8 12 -45 128q-23 75 -88 83
q-6 2 -43 11q-30 5 -48 5q-12 0 -21 -3q-52 -14 -228 -2q-98 7 -146 -4q-15 -3 -20 -27q43 -142 3 -248q3 7 3 -59q0 -19 -6 -70q-5 -44 -2 -70q0 -12 22 -31h451q22 8 43 13q34 12 47 39q12 31 43 86q32 0 21 2q19 -4 29 -29q-5 -68 -10 -175q0 -71 -17 -207
q-5 -19 -48 -14q-14 30 -55 76q-24 20 -74 39q-43 17 -58 17h-166q-16 0 -61 6t-67 6q-65 0 -81 -37q-19 -43 -19 -64q0 -22 8 -84q9 -58 7 -90q-1 -17 -12 -65q-9 -45 -9 -70q0 -20 4 -37q9 -29 66.5 -69.5t96.5 -45.5q7 -3 12 -6q14 -4 22 -4h199q66 0 113 21
q63 29 122 97q67 74 71 140q30 21 79 7z" />
    <glyph glyph-name="F" unicode="F" horiz-adv-x="1124" 
d="M1153 1424q10 -57 -8 -327q-2 -22 -33 -50h-44q-7 88 -18 123q-25 74 -84.5 90t-258.5 16h-224q-63 0 -63 -117q0 14 12 -130q2 -32 -8 -103q-13 -77 -13 -114q0 -55 21 -92h168q7 0 43 -7t46 -7h164q92 0 160 94q4 17 17 51q15 13 57 9q6 -37 12 -110q-4 -90 -32 -354
q-3 -35 -64 -28q-12 49 -24 100q-19 63 -75 79q-30 9 -159 9h-190q-11 -6 -61 -4q-43 1 -60 -21q0 -30 -4 -86q0 -13 -19 -76q-14 -46 -12 -73q11 -18 19 -48q0 -23 -4 -68.5t-4 -67.5q0 -97 68 -152q2 0 190 -72q-26 -29 -72 -29q-13 0 -36 2.5t-31 4.5q-118 1 -294 11
q-93 5 -122 -1q-16 -10 -46 -23q-17 -2 -46 6q-46 12 -50 14q8 21 60.5 57t61.5 56q49 86 49 161v298q0 -2 -3.5 85.5t-3.5 130.5q0 -5 4 42q2 35 -2 61q-5 36 -19 61q45 62 45 146q0 85 -45 192q0 22 -3 60q-2 21 -8 34q-25 53 -77 99q-12 12 -64 17q-10 15 -8 51
q-6 0 176 4q284 4 864 9q58 0 155 -13z" />
    <glyph glyph-name="G" unicode="G" horiz-adv-x="1290" 
d="M1288 1414q2 -10 2 -22q0 -26 -11 -92t-11 -99q0 -16 1 -32q-7 -20 -11 -58q2 -4 8 -18q4 -12 3 -20q-3 -7 -11 -19q0 -11 8 -68q-28 -28 -51 -28q-11 0 -22 15q9 70 7 87q-3 17 -13 54q-24 52 -88 115q-23 25 -114 65q-9 4 -74 16q-43 8 -122 8q-162 0 -293 -126
q-17 -9 -114 -37q-33 -145 -47 -283q-6 -58 -6 -189v-80q0 7 16 -64q2 -37 10 -100q8 -8 26 -36q0 -16 6 -42q17 -23 50 -69q6 -14 17 -39q51 -98 160 -163q49 -28 98 -40q145 6 159 4q29 0 58 5q15 4 41 15q-5 10 -5 8q45 -23 26 -29q3 22 -10 39q26 -2 25 46l-7 232
q-8 69 -19 108q-9 6 -21 24q-19 63 -84 81q-26 8 -114 9q-2 3 -10 9v30q29 11 96 11q5 0 80.5 -6.5t80.5 -6.5q7 0 21 5.5t20 5.5q69 6 80 6q161 0 137 -1v-51q0 -3 -11 -26.5t-13 -33.5q-19 -83 -23 -168q-4 -109 -4 -148q0 -83 17 -228q-42 -23 -139 -49.5t-148 -29.5
q-18 2 -51 -2q-51 -11 -72 -11q-5 0 -17 3l-16 4q-121 6 -200 21q-28 11 -88 29q-116 23 -259 154q-146 135 -181 261q-9 27 -27 82q-8 17 -22 55q-15 58 -15 99q0 -5 6 44q5 40 1 58q-5 18 -5 41q0 40 19 116q25 94 29 127q114 211 137 211q5 0 7 -4t10 -4q18 0 31 8
q4 16 18 42q107 123 130 123q6 0 8.5 -2.5t6.5 -2.5q6 0 25 16t27 16q5 0 13 -4.5t13 -4.5q6 0 103 25.5t103 25.5h299q4 0 105 -11.5t107 -11.5h41.5h56.5z" />
    <glyph glyph-name="H" unicode="H" horiz-adv-x="1341" 
d="M1386 1413q1 -30 -27 -39q-13 -4 -32 -11q-98 -67 -88 -180q4 -54 -19 -155v-20q0 -22 7 -56q12 -42 13 -53q5 -26 -11 -139q-7 -45 -16 -139q-1 -29 3 -79q8 -53 8 -75l3 -238q8 -58 16 -117q14 -76 41 -128q9 -21 57 -35q35 -9 35 -29q0 -12 -15 -26h-479q-8 9 -8 30
q0 20 24 33q28 14 56 29q36 25 40 52q-10 132 -2 239q3 23 0 64q-3 52 -3 69q0 13 -9 89q-5 57 1 91q38 31 16 96q-69 -55 -164 -65q-71 -7 -105 -5q-7 0 -28.5 5t-27.5 5h-229q-22 0 -10 -32q-45 -46 -24 -108q7 -13 17 -38q1 -12 -3 -37q-4 -30 -4 -40q0 -22 4 -65t4 -45
v-117q0 -46 23 -101q-15 -72 28 -91q27 -5 65 -25q5 -44 -53 -44q-23 0 -64 11h-209q-10 -9 -11 -11q-12 0 -59 -3q-38 -2 -60 0q-10 0 -36.5 2.5t-41.5 2.5q-8 42 45 62q80 27 100 92q6 53 13 105q15 111 15 165q0 8 -11 37q-15 32 -17 46q-1 16 6 48l8 37v209q0 4 7 19
t7 22q0 15 -23 103l8 85q4 46 0 84q0 3 -4.5 10.5t-4.5 11.5v176q0 21 -29 74q-29 57 -50 62q-43 12 -60 29q-5 5 0 26t23 26t100.5 12.5t125.5 7.5h220q58 -18 58 -46q0 -10 -12 -19q-11 -3 -31 -9q-93 -48 -97 -78q-5 -49 -20 -165q-11 -100 -11 -103v-108q0 -87 10 -122
q5 -15 32 -21q4 -2 79 -3q38 -1 110 1q78 5 72 5h160q50 0 55 -2q10 -3 55 -26q38 -18 55 -15q-2 25 -2 96q0 15 -15 125q-3 22 -3 118q0 9 -7.5 37t-7.5 48q-2 104 -41 161q-16 23 -29 54q-41 19 -41 38v6q22 22 36 23q54 4 117 -4q11 -9 39 -16q29 -1 69 11q51 16 66 17
q22 0 66 1q34 5 51 5q51 0 85 -30zM206 972q-1 26 -2 67q11 105 -9 217q-2 10 -22 43q12 -91 12 -146v-176q0 -82 5 -162q14 102 16 157z" />
    <glyph glyph-name="I" unicode="I" horiz-adv-x="715" 
d="M824 1405q-5 -18 -21 -50q-1 0 -95 -17q-61 -11 -75 -42q-13 -14 -32 -41q-3 -9 -40 -142l-7 -630q-11 -31 -11 -35q0 2 11 -26l-4 -189q-11 -38 0 -107q11 -79 44 -129q11 -18 57 -38q81 -36 162 -35q0 -17 -17 -48h-184q-3 0 -52.5 3.5t-53.5 3.5t-41.5 -3.5
t-43.5 -3.5q-2 0 -28.5 3.5t-31.5 3.5q-4 0 -20.5 -3.5t-20.5 -3.5l-331 -4q-42 0 -42 23q0 29 21 34q51 8 102 14q59 10 75 33q8 14 19 45q22 -1 68 -8q17 51 17 65q0 13 -17 36q13 25 4 42q-6 12 -28 41q-20 26 -20 29q0 -8 26 75q3 8 -9 26q27 34 27 48q0 2 -9 79
q0 7 -11 24t-11 20q0 6 13 16q-2 -4 -2 14v149q0 3 6 21.5t6 21.5t-4.5 9.5t-4.5 10.5q-1 18 4 119q2 12 -1.5 40.5l-3.5 28.5v149q0 13 -23 38q6 13 -11 51q0 16 -10 52q-11 11 -32 31q-7 12 -22 36q-31 38 -60 49q-35 6 -109 27q4 17 16 44h15q4 0 29.5 -2t29.5 -2h608z
" />
    <glyph glyph-name="J" unicode="J" horiz-adv-x="1086" 
d="M1182 1140q0 71 -156 117q-123 39 -221 39q-118 0 -257 -42q-63 -21 -101 -32.5t-57 -19.5q-76 -26 -94 -29q-139 -41 -188 -41q-151 0 -186 72q-36 73 -56 73q-24 0 -33 -9l-5 -38q0 -80 115 -124q96 -42 210 -42h77q13 0 57.5 4.5t117.5 11.5l128 14h140l89 -12
q95 -16 111 -35q-47 -21 -82.5 -37t-56.5 -26q-120 -55 -120 -60q0 -14 68 -39q71 -23 71 -58q0 -76 -14 -180l43 -25l-48 -11l-6 -108l141 5l-135 -51v-206q0 -111 80 -212v-60q0 -74 -110 -131q-99 -53 -203 -53h-73q-103 0 -212 74q-131 86 -131 196q0 114 77 236
q14 20 24 37t23 32q38 57 62.5 90t32.5 46q77 98 77 151v90q0 40 -61 78l-59 27q-50 -19 -50 -34q0 -3 47 -47q46 -39 46 -76q0 -78 -80 -184l-144 -195q-76 -100 -76 -178v-126q0 -66 91 -150l95 -84q129 -77 354 -77q419 0 543 232l30 79q0 42 -41 155l-45 121v694
q0 65 78 109q58 35 73 49z" />
    <glyph glyph-name="K" unicode="K" horiz-adv-x="1399" 
d="M35 1463l126 -22h21l70 22l53 -22l323 22l18 -22v-43q-12 -64 -124 -109l-54 21l37 -84l-37 -128l19 -25v-22l-19 -127l19 -86l-19 -88q107 0 487 518v42q-81 0 -126 110l34 43h37l162 -22l179 22h160l37 -43v-22q0 -80 -270 -130h-71q0 -112 -268 -387l-35 -67
q405 -456 681 -858q90 0 126 -147l179 -65h36l54 40h17q74 -31 74 -150q-93 -67 -181 -67h-144q-183 0 -503 325v24l35 63v20h-35l-53 -43h-39l-268 322q0 85 -72 85q0 80 -141 175q0 64 -38 64l-54 -22v-42l37 -67l-37 -43q37 -322 109 -322l143 -86l-39 -41h-536l-127 -23
l-18 23v20q182 143 182 256v108l-21 129l21 21v25l-21 83l21 22v24l-21 19v22l21 302v41l-21 89l21 86q-37 0 -37 63q-127 38 -127 85v46l17 21v22z" />
    <glyph glyph-name="L" unicode="L" horiz-adv-x="881" 
d="M1289 -2q3 -26 -15 -68q-23 -49 -55 -150q-22 -97 -71 -99q-52 0 -112 2q-79 1 -141 1q-144 0 -229.5 3t-67.5 3q-66 0 -160 -6q-9 2 -21 6q-26 3 -266 3h-245q-3 0 -24 2.5t-31 2.5q6 17 15 41q28 3 81 14q54 15 84 54q14 10 35 30q0 12 -8.5 39t-8.5 39q14 -2 62 25
q-4 2 -22 27q0 2 -22 2q-25 15 12 47q23 18 23 48q0 18 -10 50t-10 43q0 3 7 12.5t7 13.5v77q0 2 8 19t8 25q0 5 -12 34q2 -4 7 34q2 6 -3 20q-7 16 -7 23q-1 12 7 44q8 37 8 47q0 15 -3.5 44t-3.5 31v80q0 5 7 12l-7 89q-5 35 2 57q5 10 5 21q0 23 -15 54q-12 25 -24 51
q-2 2 1 44l-8 183q-5 12 -13 41q0 1 7 32q1 6 -7.5 19.5t-9.5 19.5q1 -6 12 48q-21 25 -79 68q-14 7 -50 9q-44 1 -54 3q-6 7 0 23q8 14 20 18q55 3 52 3q112 -5 342 -12q57 -2 45 -2q213 14 205 14h191q3 -16 -14 -41q-46 -5 -140 -15q-89 -10 -130 -80q-11 -22 -24 -79
q-16 -80 -16 -113v-829q0 -3 3 -18.5t3 -20.5q4 -51 0 -89q-6 -56 22 -62q-2 4 -6 -50q-2 0 -8 -2q36 -106 36 -122q-17 -17 -40 -56q0 -10 36 -70q53 -2 157 -7q19 -2 57 -19q7 5 28 19q34 0 94 -4q66 -3 95 -3q6 0 24 7t28 8q37 4 106 17q14 3 48 35l52 46q77 57 75 103
q28 -3 76 -13zM108 995v50q0 27 1 81.5t1 79.5q0 118 -25 186q-4 -9 -1 -38q3 -22 5 -42q4 -115 19 -317z" />
    <glyph glyph-name="M" unicode="M" horiz-adv-x="1980" 
d="M2035 1392q-23 -4 -71 -16q-86 -26 -120 -65q-21 -25 -7 -98q0 -4 6 -11t6 -12q0 5 -23 -39q-10 -24 -10 -49v-125q0 -5 6 -10t7 -7q0 -3 -4.5 -14.5t-4.5 -16.5v-117q0 8 -4 -63q-6 -61 -5 -87q15 -115 15 -99v-167q0 -41 -7 -79q-9 -17 -21 -55q-10 -45 0 -74
q12 -22 27 -67q-6 -39 -4 -107q14 -46 104 -70q29 -6 94 -32q7 -9 -4.5 -30t-30.5 -19q-71 4 -140 6q-120 7 -156 5q-9 0 -22.5 -6.5t-16.5 -6.5h-159q-14 0 -52.5 -2t-62.5 -2q-62 0 -96 17q-1 22 10 56q35 4 94 23q41 25 93 74q25 23 23 79q0 5 -6.5 18.5t-6.5 18.5v105
q0 -14 -3 68q-3 68 0 91q10 73 -5 129q-4 4 5 107q4 39 12 121q-2 -2 -25 184q0 14 -12 41q-23 -38 -39 -79q-42 -89 -115 -267q-2 -26 -13 -75q-30 -46 -77 -143q0 -34 -9 -99q-27 -57 -77 -171q-8 -54 -42 -163q-17 -33 -64 -92l-27 -6q-39 -14 -102 -9q-11 13 -29 40
q-24 69 -78 207q-19 17 -49 61q6 35 -2 91q-28 53 -67 71q3 16 3 32q0 91 -73 140q-7 20 -23 57q-18 57 -50 157q-20 37 -58 110q-10 30 -21 59q-14 35 -43 56q-3 32 -28 80q-17 -4 -26 -94q-4 -35 7 -109q12 -78 12 -71v-127q0 -39 -3 -180q-4 -121 -2 -184q8 -17 18 -87
q0 -59 19 -176q12 -44 89 -71q47 -14 95 -40q13 -27 -10 -44q-28 -10 -85 -10q-22 0 -170 12q-27 0 -68 -4q-53 -6 -68 -6q-52 -2 -164 8q-21 17 -21 38q0 16 21 26q24 1 73 15q30 14 74 43q25 33 34 77q8 39 15 77v101q0 72 -3 57q24 90 24 110v96l-30 162v91q0 5 4 14
t4 13q1 16 -4 49l-4 36v117q0 -5 6 37q6 36 2 51q-2 4 -12 25q-7 20 -7 24v105q0 3 -10 27t-10 36q0 2 -32 40q-29 34 -55 46q-9 2 -65 10q-8 0 -8 17q-2 18 4 26q20 11 58 11q52 1 61 3l246 -5q22 -3 36 -3q12 0 24 2.5t18 2.5q17 0 48 -12q19 -10 49 -74q11 -37 27 -93
q16 -32 43 -96q19 -49 60 -113q68 -118 164 -344q2 -7 -15 -52q-6 -5 -17 -15q-5 -47 -4 -51q4 -10 70 -22q15 -37 44 -102q16 -24 46 -73q9 -29 29 -70q18 21 39 46q16 27 43 81q0 10 3 28q19 64 78 160q5 21 18 62q25 40 62 129q10 46 19 94t30 83q16 19 41 58
q28 103 105 295q2 24 25 64q23 15 52 15t84 1.5t88 1.5q4 0 17.5 -3t18.5 -3l270 3q12 2 25 -12.5t13 -26.5q0 -3 -2 -7z" />
    <glyph glyph-name="N" unicode="N" horiz-adv-x="1801" 
d="M1273 258l-10 -16l-6 8l6 37q0 -2 4 -15.5t6 -13.5zM152 1705h81l46 -40h142q34 -38 130 -38v-18l14 18h19q32 0 32 -57l14 -20q0 -37 96 -37q738 -841 738 -1038h48v57q-34 39 -48 250l48 135v37q-48 0 -48 38v39l14 21q-8 287 -207 287l-16 21v18q20 96 49 96h30
l112 -39l66 18l112 -39l210 39l13 -18v-75q-160 -108 -160 -270v-251l-15 -96l15 -135l18 -555q33 0 111 -171q149 -115 267 -104l112 -4l15 -98q-85 -102 -138 -102h-175q-249 0 -611 479v19q0 37 64 37v38l-95 -18q-147 142 -322 500q-207 307 -207 363h-65l17 -93
l-17 -60l17 -96v-191l-48 -58l81 -191l-16 -117l96 -114l16 20h63v-59l-33 -56l-159 17h-48l-46 -37l-274 -18l-31 55v98q71 0 112 76q46 0 46 190l32 80l-32 537l51 56v59l-51 77v58l18 96l-193 153h-80l-63 -21l-63 21l-15 -21q0 60 -67 60l-17 19v38q0 85 180 116z" />
    <glyph glyph-name="O" unicode="O" horiz-adv-x="1565" 
d="M1552 764q-29 -22 0 -71q-5 -148 -11 -178q-18 -99 -78 -136q-8 -12 -8 -41.5t-6 -41.5q-121 -194 -294 -310q-189 -127 -387 -114q-28 -6 -60 -6t-231 46q-21 6 -60.5 36.5t-66.5 30.5q-13 0 -26 -6q-66 59 -131 117q-74 71 -95 148q-26 6 -42 41.5t-29 68.5
q-8 13 -8 28q0 22 13 52.5t13 43.5q0 24 -39 33q8 225 11 249q13 142 63 228q71 55 68 120q145 157 229 218q136 105 278 108l45 15q168 -6 337 -15q192 -18 297 -123l68 -61q42 -37 37 -90q108 -126 113 -390zM1181 558q15 28 15 68q0 30 -15 97t-13 99q-31 17 -49.5 69.5
t-35.5 71.5q-18 53 -70 105q0 2 -99 86l-148 24q-57 -12 -113 -21q-66 -19 -94 -61q-5 -24 -29 -61q-48 -9 -67 -70q-27 -75 -46 -91q-31 -115 -31 -176q0 -28 5 -51q6 -68 10 -133q7 -82 48 -117q7 -54 62 -98q78 -61 91 -80q18 -5 68 -30q41 -21 70 -21q11 0 24 2
q68 5 133 7q83 7 120 52q144 95 164 329z" />
    <glyph glyph-name="P" unicode="P" horiz-adv-x="1584" 
d="M0 1463q132 -23 132 -68l18 22h75l734 46v-23l17 23h19l21 -23l16 23q351 0 584 -426q-89 -536 -452 -536l-188 -44l-148 23v-114l-39 -201l131 -175q56 0 56 -45l-17 -24h-39q-376 0 -507 -68l-19 23v23q91 64 151 201v266l19 23l-19 23v22q14 156 39 156l-20 24v45
l20 21l-20 69l20 89l-20 66h20q-20 224 -132 224l-19 23v22l19 22h148l77 -22l75 22h56l93 -22l19 22l20 -22v-45q-151 0 -151 -469l19 -69h112q378 0 378 404q0 71 -76 201v21h56l-37 45l-58 -23q-164 114 -375 114l-676 -91q-132 0 -132 156v46z" />
    <glyph glyph-name="Q" unicode="Q" horiz-adv-x="1635" 
d="M901 1469v-24l20 24h20q510 -98 510 -277q134 -239 134 -417l-134 -459q-130 -184 -376 -371l216 -66q118 0 373 134l60 -68v-23l-333 -299h-217q-233 28 -233 140l-20 -25h-57q-200 30 -200 96v21l22 24v21h-196q-81 0 -156 113q-180 0 -315 440v21l21 26v22l-40 46
q0 336 137 530q0 278 764 371zM334 805q47 -380 183 -501q68 -81 273 -140v-62q102 93 307 160q110 135 110 203q-17 401 -53 401l304 90l-287 -50q-102 362 -436 362q-227 0 -381 -463h-20z" />
    <glyph glyph-name="R" unicode="R" horiz-adv-x="1641" 
d="M55 1482h28l94 -20l75 20l137 -62l44 23l49 -23l166 62l59 -20l17 20h15l137 -39l15 19h17l149 -80l19 19h15q186 -79 273 -288l16 -203q0 -220 -246 -292v-39q176 -128 565 -616l199 -141l46 20l121 -62l106 42l64 -82v-22q0 -44 -139 -82h-261q-351 0 -882 635
l-337 347l-44 65l76 79l168 -18q159 0 168 327q-45 205 -214 205q-230 0 -230 -186l-13 -306v-101l13 -84l-13 -81v-83q0 -389 134 -389q63 0 63 -42v-19l-45 -80l-184 17h-76q-240 0 -319 -37q-93 0 -93 139q0 34 170 123l13 247v82l-13 348q75 29 75 61l-75 25l44 222
q-68 205 -229 205v64z" />
    <glyph glyph-name="S" unicode="S" horiz-adv-x="1098" 
d="M460 1469l17 -54h48l45 35h252l79 19l16 -19l-16 -18v-108l48 -71v-53l-65 -74h-14q-102 117 -221 180h-313q0 -45 -93 -125v-35q0 -147 93 -147q75 -65 173 -87v-18l16 18h14q110 -35 110 -91l17 18h46q47 -54 205 -125q142 -218 142 -307h14q0 -398 -345 -501l-298 -72
q-287 0 -485 254l-33 67v91l158 180l203 90l15 -18v-55q0 -125 -173 -125l-30 -88q34 -214 109 -214l17 16h15q90 -54 189 -54q288 0 361 232l15 20v141q-180 220 -376 254q0 34 -48 34l-48 -18l-283 198l-31 287q67 142 221 252l220 72z" />
    <glyph glyph-name="T" unicode="T" horiz-adv-x="1316" 
d="M1299 1494h38l55 -62l-75 -300q48 0 132 -148l-96 -108q-155 233 -224 233l-17 -19q-44 109 -152 109v41h-75l-36 -214q23 -214 54 -214l-18 -148v-256l18 -87l-18 -83v-41q37 -50 37 -152l94 -19h57l18 19h21l17 -19v-22q-17 -150 -56 -150h-696l-95 -21l-18 21v108
q0 42 131 64l57 125v67l18 298l-18 61l18 87l-18 148l18 108l-18 23v19l18 86l-37 42v42l37 44l-37 85q-231 0 -431 -341h-58l-38 42v42q73 91 73 172v126l-16 109l75 41q263 -9 263 -41l76 21l809 -21q48 0 113 83z" />
    <glyph glyph-name="U" unicode="U" horiz-adv-x="1443" 
d="M1571 1482q0 -48 -16 -49q-25 -3 -73 -15q-21 0 -58 -14q-41 -39 -49 -113q-5 -7 -10 -20q-8 -70 -5 -89q19 -115 19 -117v-97q0 -4 -4.5 -18.5t-6.5 -19.5q0 -11 2 -35q13 -101 13 -265q0 -2 -5 -8t-5 -12t2 -48q2 -31 0 -48q-5 -67 -24 -200q-7 -39 -45 -117
q-37 -80 -62 -116q-31 -38 -115 -97q-67 -46 -132 -93q-11 9 -31 9q-13 0 -81 -19q-17 -10 -56 -28q-7 -2 -21 5t-15 7h-97q18 0 -66 16q-29 2 -84 10q-34 18 -102 45q-22 2 -63 7q-13 2 -50 22q-234 133 -243 451l-12 400q-10 166 -36 494q-9 72 -56 102q-27 18 -63 24
q-29 6 -61 12q-3 9 -3 14q0 24 43 17q101 -11 231 -11h88q3 0 89.5 1.5t104.5 1.5q63 -2 183 6q13 -13 13 -24q0 -16 -34 -24q-23 -3 -47 -8q-6 -6 -22 -16q-11 -5 -28 -15q-20 -17 -25 -32q-12 -89 -42 -249q2 3 14 -41l-12 -67q6 -21 -5 13q-3 -13 5 -44q6 -42 8 -50
q1 -17 -6 -111q0 -6 6 -17q0 -6 -8 -93q-5 -28 9 -120q8 -10 17 -30q2 -6 8 -87q-2 -15 0 -46q5 -14 15 -38q5 -10 -2 -32q16 -21 45 -61q15 -28 63 -77q115 -81 183 -92q34 -5 81 -5h-79q72 0 156 81q82 79 103 157q10 70 25 172q11 64 0 178l5 486q-8 61 -28 173
q-14 40 -99 63q-16 3 -55 11q-8 13 -8 33q-5 0 39 5q98 11 186 -8q16 5 43 7q181 -3 206 -3q18 0 42 5q28 5 41 7q4 1 18.5 -2.5t20.5 -3.5q12 0 123 10z" />
    <glyph glyph-name="V" unicode="V" horiz-adv-x="1616" 
d="M1908 1412q-23 -8 -78.5 -13.5t-85.5 -16.5q-46 -19 -82 -68q-3 -15 -19 -53q-39 -87 -104 -236q-21 -20 -62 -59q0 -8 -6 -20q-17 -24 -27 -66q-9 -49 -15 -64q-40 -69 -79 -170q-25 -73 -71 -143q-17 -23 -46 -68q-5 -24 -19 -65q-63 -120 -174 -363q-5 -26 -13 -68
q-8 -30 -42 -54q-15 -10 -64 -12q-73 -4 -89 10q2 16 -3 45q-8 13 -41 38q-27 20 -29 38q0 -4 4 81q4 62 -10 79q-15 7 -36 24q-17 29 -43 133q-6 8 -19 21q-13 25 -10 54q14 9 120 31q69 14 98 71q-32 15 -75 15q-29 0 -82.5 -10t-76.5 -10q-36 0 -62 16q5 8 5 17
q0 22 -36 70q-44 56 -50 74q5 20 6 60q-14 6 -34 24q-3 23 -16 64q-28 38 -84 133q-7 30 -31 93q-12 18 -34 54q-4 5 -49 113q3 13 1 40q-5 14 -47 52q-36 31 -29 56q-78 23 -203 74q12 19 125 36q10 -4 21 -14q9 -35 54 -35q-8 0 73 10q50 -6 148 3q40 12 78 15q32 4 65 7
q11 2 95 -13q66 -11 163 23q10 -6 24 -21q2 -6 2 -13q0 -24 -51 -28q-82 -5 -94 -8q-51 -15 -51 -65q0 -30 45 -152q-2 -31 3 -93q3 -9 31 -27q30 -23 32 -26q20 -26 29 -66q10 -60 14 -67q21 -52 62 -153q4 -30 14 -89q18 -13 46 -39q10 -16 16 -53q8 -48 10 -56
q13 -23 29 -68q0 -26 10 -74q10 -28 -93 7q28 6 42 39q8 25 18 51q19 25 59 78q3 6 32 80q-5 14 -2 43q15 25 34 73q4 29 20 74q24 12 59 45q-4 20 -4 58q7 27 33 60q16 25 35 50q2 0 20 73q20 17 41 50q-7 15 -8 43q24 37 68 129q7 16 0 27q-18 36 -68 86q-18 10 -56 14
q100 -17 88 -14q2 26 24 26h473q5 0 35 -4q25 -5 37 -3q13 5 46 13q25 -12 16 -53z" />
    <glyph glyph-name="W" unicode="W" horiz-adv-x="1865" 
d="M40 1460h339l188 22l35 -43l204 43l22 -22v-21l95 21h149l222 22l17 -22v-40q0 -31 -149 -84l114 -377q62 -291 113 -291h17v61l188 607q-149 10 -149 60q0 51 92 64v-21l78 43l71 -22l169 22l78 -22l149 22v-43q0 -35 -170 -103l-506 -1421q-85 -43 -244 -43l-187 585
v23l19 17v24h-39l-203 -587l-207 -62q-78 0 -166 438q-51 0 -116 252l21 18v23q-42 18 -222 459v20l14 24v20q-104 210 -223 210l-57 60q0 64 244 64zM403 1278v-13l221 -512h23q51 30 140 233q-131 309 -280 309h-43z" />
    <glyph glyph-name="X" unicode="X" horiz-adv-x="1597" 
d="M286 1469h337l40 -41v-24q0 -41 -61 -41l-23 -21v-19q84 -219 168 -274h22l122 209v65q-78 0 -78 60l60 65h42l81 -20l84 41l209 -21l273 21l17 -21v-20q0 -65 -125 -65q-127 -66 -436 -543h-62l40 -40l-18 -22v-22q197 -235 271 -479v-21l-44 -63h22l38 104h24l333 -269
v-22q0 -48 -314 -60l-184 17l-399 -17l-22 17v43l22 22q148 66 148 104l-188 251q-312 -465 -480 -603l-375 -169l-79 24l-145 -24v24l-20 -24h-23l-233 44q15 125 68 125l230 -65q193 0 433 437q49 0 375 479v45l-41 59v105q-138 0 -255 315q-147 179 -330 228v41
q0 65 476 65z" />
    <glyph glyph-name="Y" unicode="Y" horiz-adv-x="1354" 
d="M601 1470l30 -31q0 -24 -61 -80l-6 -21q0 -29 47 -108q22 -67 161 -247q77 117 110 210q20 0 40 129q0 37 -82 86l-5 5v5q14 41 55 41l138 -4q4 15 34 15v-5l6 5l281 -11l28 6l17 -6l166 16l5 -5v-5q0 -72 -35 -72q-73 -6 -161 -97l-160 -261q-11 0 -126 -225
q-95 -94 -95 -190l-6 -25l6 -5v-5l-6 -6l6 -4v-40l-6 -5l6 -4v-131l-6 -5l6 -5v-189q0 -182 85 -226q47 -7 81 -37v-11q-6 -52 -56 -52h-130l-46 -11h-205l-6 5l-5 -5l-15 5l-156 -5v5l-5 -5h-200q-31 19 -31 47q15 31 147 75q55 65 84 140l16 21l-37 33v84l6 52
q-17 0 107 27l-129 32h3l-6 5l33 91q-33 178 -108 243q-209 319 -383 526q-81 133 -166 133l-39 25v15q0 42 85 42q286 20 689 20z" />
    <glyph glyph-name="Z" unicode="Z" horiz-adv-x="1507" 
d="M33 1456h1388l38 -40v-83q-588 -776 -844 -1199l-31 6l-2 -48l-95 29l56 -88h20q632 0 632 307l23 20h223l41 -40v-225l-23 -80l23 -81q0 -62 -328 -62h-916q-327 0 -327 62v40l571 791l183 221l146 -22l-82 93l98 236h-161q-408 0 -408 -265h-245l-41 40l20 101l-20 105
q17 182 61 182z" />
    <glyph glyph-name="bracketleft" unicode="[" horiz-adv-x="538" 
d="M515 1229q-18 -20 -147 -68q-96 -35 -96 -112q0 -15 4 -35q-24 -580 -24 -565q0 -138 11 -250q64 -52 213 -122q30 -35 8 -55l-168 9q-103 4 -171 -7q-31 92 -22 256q11 184 -5 257q-17 22 -56 37q-51 20 -62 26q-2 44 53 64q68 24 81 50q9 90 9 186q0 171 -29 370
q20 16 44 16q20 0 67 -15.5t73 -13.5q86 -6 191 13q17 0 23.5 -10.5t2.5 -30.5z" />
    <glyph glyph-name="backslash" unicode="\" horiz-adv-x="569" 
d="M83 1422l490 -1450h-80l-490 1450h80z" />
    <glyph glyph-name="bracketright" unicode="]" horiz-adv-x="525" 
d="M465 675q-39 -22 -77 -42q-48 -26 -52 -70q2 -160 22 -482q-18 -31 -59 -31q-13 0 -40.5 3.5t-40.5 3.5q-29 0 -46 -11q-11 4 -24 4q-14 0 -39 -4t-36 -4q-26 0 -44 15q-15 31 0 61q16 13 88 51q55 28 72 68q15 138 15 302q0 133 -24 565q-24 31 -96 56t-90 60q-2 4 -2 7
q0 6 11 11.5t13 7.5q125 -11 147 -11q81 0 127 27h39q22 -3 33 -18l-6 -282q-22 -90 0 -182q8 -13 70 -44q46 -22 39 -61z" />
    <glyph glyph-name="asciicircum" unicode="^" horiz-adv-x="1271" 
d="M365 1308l12 17q28 0 50 25l93 214q0 19 18 37q14 68 24 68q0 65 38 92h86q14 -60 56 -142l124 -282q55 -16 55 -24v-5l-12 -14l-161 6q-43 179 -55 179q-23 85 -31 85l-19 -61l-56 -171l-25 -38l-104 7v-7l-6 -5l-25 5l-19 -5q-43 5 -43 19z" />
    <glyph glyph-name="grave" unicode="`" horiz-adv-x="299" 
d="M109 1596q-30 17 -64.5 5.5t-50.5 -42.5q-26 -47 69 -141q75 -73 119 -118t57 -64l20 -11l16 29q-14 61 -66 178q-65 145 -100 164z" />
    <glyph glyph-name="a" unicode="a" horiz-adv-x="1201" 
d="M530 1140h142l178 -12l306 28l13 -16v-26q0 -29 -76 -43q-82 0 -91 -339l25 -284v-170q0 -108 154 -157v-12l-38 -42h-510l-38 42l26 29h77l63 183l-12 98l12 114l-280 71h-116q0 -67 -154 -412q-232 -310 -561 -310q-51 23 -51 44q24 0 39 71l64 -14h76l116 71
q0 39 52 98q58 296 99 296v57l-25 44v11q0 30 37 30v43q0 53 -62 156q0 26 127 40q140 203 307 256q0 37 101 55zM574 784v-15q0 -34 248 -63h10l-10 108l21 31q-21 0 -21 156l-11 14h-43q-153 -75 -194 -231z" />
    <glyph glyph-name="b" unicode="b" horiz-adv-x="1111" 
d="M603 1169l73 -14h108l170 -89l71 -204q0 -176 -109 -176h-35v-45q205 -95 205 -309v-13q-44 -265 -289 -265l-97 -15h-73l-192 29h-157l-73 -14l-59 14h-38l-84 -14l-24 43v17q0 24 84 57l24 44l-11 14v15l25 30l-14 16v14l14 15v13l-14 45l24 45l-10 14v205l-14 88
l14 72v61l-25 43l11 103l-59 29l-37 -29l-12 16v72l49 59l278 -28l154 28v-14zM398 984l-12 -218q0 -541 60 -541l108 -13l49 13l60 -13q74 0 110 262q-62 102 -110 132l-36 -16l-50 60h-58l-60 -15l-13 15v30l60 100l97 -29l47 15h36l37 88v72q0 83 -193 104h-59z" />
    <glyph glyph-name="c" unicode="c" horiz-adv-x="1194" 
d="M495 1169h145l15 -16l14 16l73 -16h188l217 16l15 -16v-44q-38 -20 -73 -311q-79 -57 -129 -57q-30 0 -30 126q-26 0 -117 129l-231 58l-115 -14h-30q-108 -149 -144 -270q0 -242 217 -515q117 -70 262 -70l216 29q174 -13 174 -45v-41q0 -71 -362 -71h-406
q-33 28 -160 43q-246 171 -246 440q0 174 144 371q0 140 246 214q10 44 117 44z" />
    <glyph glyph-name="d" unicode="d" horiz-adv-x="1285" 
d="M39 1151h118l198 -27l27 27h277l65 15l79 -15h145q209 0 292 -224v-223q-37 -37 -68 -182q-130 -242 -169 -266q-170 -182 -778 -182l-27 57l-13 209q13 177 40 225l-27 56l27 54l-27 29l13 70l-13 153v127l-41 13l-105 -42q-52 22 -52 42v41zM448 984l11 -43l-11 -113
l11 -224v-264l135 -56q263 42 263 139q49 0 119 309q0 320 -212 320q0 26 -131 42q-146 0 -146 -98z" />
    <glyph glyph-name="e" unicode="e" horiz-adv-x="1207" 
d="M6 1181q146 -10 146 -46l13 16h684l64 14q0 -140 94 -310q-13 -43 -80 -43q-104 191 -301 265h-158l-14 -14h-13l13 -16v-28l-26 -45v-102l-12 -90l12 -44h-12l12 -90l91 16h28l53 -16q183 37 183 134h13l39 -44l-12 -44l26 -222l-41 -30h-12l-13 14q0 120 -277 120h-38
l-27 -30l13 -119l-13 -14h-13l26 -90v-104q0 -28 80 -28l26 -30l14 16h12l117 -16l42 16l116 -16h66l40 30h14l53 -14q93 0 184 162l52 -104l-40 -146l-355 -16h-697l-39 -30h-93q-26 9 -52 74l118 44v147l27 44v296l-12 164l12 118l-55 89q-25 0 -25 58q-65 0 -65 30v44
l12 14v16zM172 724l23 -29h12v45z" />
    <glyph glyph-name="f" unicode="f" horiz-adv-x="1077" 
d="M6 1188q151 -11 151 -46l13 16h707l66 14q0 -141 97 -309q-14 -43 -82 -43q-108 191 -312 264h-163l-14 -14h-13l13 -16v-28l-27 -45v-102l-13 -89l13 -44h-13l13 -90l94 16h29l55 -16q188 37 188 134h14l40 -44l-12 -44l27 -222l-42 -30h-13l-14 14q0 120 -286 120h-39
l-27 -30l13 -120l-13 -13h-14l27 -90v-103q0 -28 72 -80l-28 -18h69q79 -69 -23 -65l-351 -4l-65 -9h-95q-27 9 -54 74l122 44v147l27 44v295l-12 164l12 117l-56 89q-26 0 -26 58q-67 0 -67 30v44l12 14v16zM177 806l24 -30h12v47z" />
    <glyph glyph-name="g" unicode="g" horiz-adv-x="1129" 
d="M494 1144l45 -16l16 16h15l15 -16l107 16h324l45 -44l-15 -281l-17 -15h-61q-22 0 -61 177q-80 42 -368 73q0 -23 -139 -73q-88 -111 -122 -355q158 -397 322 -397l48 -16v-15q153 0 153 118l15 89l-48 44v30l33 30h91l184 14l16 -14v-46q0 -102 -31 -102l15 -74v-279
l-30 -30h-48l-13 16q-32 0 -32 86l-46 16l-290 -29l-17 13l-76 -13h-78l-229 74q-78 0 -108 118q-46 0 -76 131v31l15 14v14l-46 46q0 238 137 455q227 189 355 194z" />
    <glyph glyph-name="h" unicode="h" horiz-adv-x="1099" 
d="M159 1152h156l51 14q78 -29 78 -56l-58 -105q-25 -59 -25 -223v-44q-2 -58 30 -37h297l51 -8v20q8 368 -102 368l-15 15v14l40 42h320q80 -10 80 -42q-104 -83 -104 -127l-14 -113l14 -111l-14 -338v-31q0 -208 118 -280l-28 -28h-359l-26 28v13q102 75 92 243l-2 222
q-49 -27 -142 -27h-50l-13 15l-14 -15h-165l18 -29q-58 -380 33 -380l38 -42l-38 -43h-195q-205 0 -205 43q117 62 117 211l12 42l-27 98q10 198 27 198l-27 57l15 43l-15 155v69q-49 83 -91 83v44q0 42 142 42z" />
    <glyph glyph-name="i" unicode="i" horiz-adv-x="624" 
d="M44 1195h26q0 -45 63 -45l78 15l205 -15l62 45h52l26 -30v-73l-26 -43l-12 14h-51q0 -57 -51 -57v-192l-27 -42l27 -88v-394l77 -73h12l62 15l27 -43l-27 -43l27 -58l-11 -15l-53 15h-25v-15l-128 15h-217l-143 -29l-11 14v85l64 59q0 43 25 43l27 -28l24 28l-24 294
l38 43v116l13 72q-66 15 -66 58l39 119v14l-24 30l-39 -15q0 27 -77 58v88l38 43v15z" />
    <glyph glyph-name="j" unicode="j" horiz-adv-x="854" 
d="M343 1172l62 -16l361 32l43 -44q0 -73 -43 -73l21 -58l-21 -176l21 -131q-62 -439 -211 -569q-380 -263 -826 -263q-86 22 -86 45l86 44h85q274 0 339 130q253 196 253 495v160l22 74l-44 30l22 131l-106 88q-172 0 -275 -74h-43l-63 44v57q0 74 403 74z" />
    <glyph glyph-name="k" unicode="k" horiz-adv-x="1203" 
d="M38 1181l106 -16h15l60 16l45 -16l269 16l16 -16v-34q-10 -49 -104 -82l-45 15l31 -64l-31 -98l15 -19v-16l-15 -98l15 -66l-15 -67q88 0 406 397v31q-68 0 -106 84l30 33h31l134 -16l152 16h133l30 -33v-17q0 -60 -224 -98h-62q0 -87 -224 -297l-30 -50
q342 -349 571 -658q75 0 106 -112l150 -50h30l45 32h16q60 -25 60 -116q-78 -50 -151 -50h-120q-154 0 -421 247v19l30 48v15h-30l-45 -33h-32l-224 247q0 66 -61 66q0 61 -118 133q0 49 -31 49l-45 -17v-32l31 -50l-31 -34q31 -246 90 -246l120 -66l-31 -32h-450l-106 -18
l-15 18v15q151 110 151 197v83l-15 98l15 16v19l-15 64l15 16v18l-15 16v17l15 230v32l-15 67l15 66q-30 0 -30 49q-106 28 -106 65v34l15 17v16z" />
    <glyph glyph-name="l" unicode="l" horiz-adv-x="1166" 
d="M593 1210h71l30 -32v-106l-30 -31l-42 16q-143 -11 -143 -46v-76l-32 -209q16 -171 44 -214l-12 -136l12 -16v-13l-12 -60q12 -63 86 -63l40 33h31l28 -33l334 33v30l-29 44v16l29 29h86l45 -29l-16 -182v-45q-7 -46 -115 -46h-145l-374 14l-16 -14h-16l-99 14l-332 -29
l-16 15v136q0 30 44 30l71 -46q53 0 86 211l-28 31l16 76l-30 198l14 16q-42 0 -42 29q0 51 42 107l-14 165q-51 0 -115 77v30l28 30h31l158 -16l43 30l72 -14h115q50 0 102 46zM201 747l16 -16h12l32 31l-15 15h-17z" />
    <glyph glyph-name="m" unicode="m" horiz-adv-x="1351" 
d="M1319 109q4 -7 4 -13q0 -29 -32 -29q-6 0 -12 3q-18 9 -42 11q-17 2 -44 0q-32 -1 -42 -1q-193 9 -211 5t-57 -8q-34 -4 -43 15q-2 6 2.5 17t12.5 13q2 0 59 6q43 6 53 84q2 51 5 156q0 6 -3 20t-3 20q2 71 -10 202v68q0 2 -6.5 31.5t-6.5 42.5q-4 58 -3 80q0 1 4.5 17.5
t4.5 27.5q0 18 79 20q-18 -15 -28 -55q-6 -12 -16 -34q-3 -17 -12 -48q-4 -6 -12 -22q-2 -9 -6 -26q-14 -32 -41 -93q-1 -12 -6 -36q-7 -11 -15 -27q-2 -13 -9 -35q-13 -27 -38 -82q-2 -17 -10 -50q-4 -5 -11 -16q-1 -2 -11 -37q-6 -11 -14 -32q-3 -12 -10 -37
q-6 -9 -14 -29q0 -1 -47 -123q0 -16 -16 -45l-34 -4q-21 -3 -121.5 7t-124.5 72q-12 27 -34 80q-7 28 -23 74q-2 7 -82 183q-2 11 -9 32q-37 81 -108 257q-7 35 -28 101q-19 46 47 61q-6 -6 -6 -46q3 -10 6 -31q1 -11 0 -32q-1 -25 -1 -23v-83l-19 -326v-72q0 7 -1.5 -18.5
t-1.5 -84.5q1 -16 8 -42q19 -35 37 -47q15 -4 46 -18q12 -7 7 -24q-15 -20 -87 -9h-171q-21 0 -31 -2q-51 -6 -104 -5q-6 5 -9 18q-2 14 7 20q4 2 35 7q7 4 19 12q36 20 49 77q3 14 10 90q3 11 9 32q6 31 6 42v66q0 3 2 10t2 9q-1 53 12 154q1 7 4 58q3 88 1 119
q0 4 2.5 15.5t2.5 14.5v121q0 3 8 25.5t10 30.5q3 16 0 37q-6 13 -17 39q-1 19 -20 46q-10 2 -29 5.5t-50.5 10.5t-33.5 8q-22 7 -23 22q19 18 62 12q32 -5 87 -14q7 0 23 2q19 4 26 4q4 1 240 -5q22 -1 36 -53q6 -11 20 -42q4 -16 13 -48q13 -13 31 -42q1 -16 4 -48
q6 -9 15 -26q61 -157 115 -308q13 -36 27 -85t42 -108q11 -14 -51 -43q3 -3 176 -43q4 -20 17 -23q9 2 -125 21q-56 51 -25.5 152.5t59.5 163.5q3 13 11 40q6 15 19 47q1 4 8 13t9 13q2 19 10 51l22 56q11 18 38 61q2 3 8 42q1 4 46 128q1 15 9 48q20 52 256 32q8 -5 26 -11
q55 -6 81 1q15 0 42 3q7 5 21.5 12.5t30.5 0.5q9 -3 10 -13q2 -27 -24 -33q-22 -4 -44 -7q-7 -5 -21.5 -16.5t-40.5 -39.5q-1 -2 -13 -64q-10 -50 2 -150q5 -47 7 -86q0 -41 2 -127q0 3 -3 -95q-1 -55 7 -108q8 -35 18 -104q4 -92 7 -108q9 -47 42 -79q10 -10 26 -9
q20 2 25 0q10 -3 16 -15z" />
    <glyph glyph-name="n" unicode="n" horiz-adv-x="1098" 
d="M-113 1360h60l34 -30h106q25 -27 96 -27v-14l12 14h13q24 0 24 -43l10 -15q0 -27 72 -27q549 -622 549 -768h36v42q-25 29 -36 185l36 100v27q-36 0 -36 29v29l11 15q-6 212 -154 212l-12 15v14q15 71 36 71h23l83 -29l49 14l83 -29l156 29l10 -14v-56
q-119 -79 -119 -200v-185l-11 -71l11 -100l13 -410q24 0 83 -128q111 -84 199 -76l83 -3l11 -73q-63 -75 -103 -75h-129q-186 0 -455 355v13q0 28 47 28v28l-70 -14q-109 105 -240 370q-154 228 -154 270h-48l12 -70l-12 -44l12 -71v-141l-36 -44l61 -141l-12 -86l71 -85
l12 16h47v-45l-24 -41l-119 12h-36l-34 -26l-204 -14l-23 40v74q53 0 84 55q34 0 34 141l24 59l-24 398l38 42v42l-38 58v42l13 71l-143 114h-59l-47 -15l-48 15l-11 -15q0 44 -49 44l-13 14v28q0 63 134 85z" />
    <glyph glyph-name="o" unicode="o" horiz-adv-x="1041" 
d="M1073 682q-21 -15 0 -50q-4 -105 -8 -127q-13 -70 -57 -97q-5 -8 -5 -29t-4 -30q-88 -138 -213 -221q-137 -90 -280 -81q-21 -4 -43 -4q-23 0 -168 33q-15 4 -43.5 26t-47.5 22q-9 0 -19 -5q-47 42 -95 84q-53 50 -68 105q-19 4 -30.5 29t-21.5 50q-5 8 -5 19
q0 16 9.5 37.5t9.5 30.5q0 18 -29 24q6 160 8 178q9 100 45 162q52 39 50 85q104 112 165 156q99 74 202 76l32 11q122 -4 243 -11q139 -13 215 -87l50 -44q30 -26 26 -64q78 -89 82 -278zM805 536q11 20 11 48q0 22 -11 69.5t-10 70.5q-22 12 -35.5 49.5t-25.5 50.5
q-13 38 -51 75q0 1 -71 61l-107 17q-41 -8 -82 -15q-48 -13 -68 -43q-4 -17 -21 -44q-35 -6 -49 -49q-19 -54 -33 -65q-22 -82 -22 -125q0 -20 3 -37q5 -48 8 -95q5 -58 35 -83q4 -38 44 -70q57 -43 66 -57q13 -3 49 -21q30 -15 51 -15q8 0 17 2q49 3 96 5q60 5 87 36
q104 68 119 235z" />
    <glyph glyph-name="p" unicode="p" horiz-adv-x="1162" 
d="M61 1169h12l62 -15l75 15l110 -44l35 15l39 -15l159 29v-14l47 29l76 -29h97l247 -100q98 -112 98 -274q-53 -200 -198 -200q0 -27 -37 -27q-418 0 -418 69l63 57h37l35 -28q163 0 210 185q-30 218 -221 218q-159 0 -159 -245v-401q0 -231 135 -231l24 -29v-12l-36 -44
h-123l-393 -14l-25 99q135 48 135 102l12 144v85l-12 214l63 15v29l-63 14l37 174q-60 128 -172 128l-12 14v15z" />
    <glyph glyph-name="q" unicode="q" horiz-adv-x="1220" 
d="M671 1175v-17l15 17h15q379 -68 379 -193q100 -166 100 -290l-100 -319q-96 -128 -279 -258l160 -46q89 0 279 93l44 -47v-16l-248 -208h-162q-173 19 -173 98l-15 -18h-43q-148 21 -148 67v14l16 17v15h-146q-60 0 -116 78q-135 0 -235 306v15l16 18v15l-30 32
q0 234 102 369q0 193 569 258zM249 713q35 -264 136 -349q50 -56 203 -96v-43q76 64 229 111q81 93 81 141q-11 278 -38 278l12 16v12q-76 252 -325 252q-169 0 -284 -322h-14z" />
    <glyph glyph-name="r" unicode="r" horiz-adv-x="1175" 
d="M29 1163h20l66 -14l52 14l96 -43l32 16l33 -16l117 43l42 -14l12 14h10l96 -27l10 13h13l104 -56l13 14h11q130 -55 191 -201l12 -141q0 -153 -173 -203v-27q123 -90 396 -430l140 -98l32 14l85 -43l74 29l45 -56v-16q0 -30 -98 -57h-182q-247 0 -618 442l-237 242
l-31 44l53 56l118 -13q111 0 118 228q-32 143 -150 143q-162 0 -162 -130l-9 -213v-71l9 -58l-9 -56v-57q0 -271 95 -271q44 0 44 -30v-13l-32 -56l-129 12h-54q-168 0 -223 -25q-66 0 -66 96q0 24 120 86l8 172v57l-8 242q52 20 52 42l-52 18l31 154q-48 143 -161 143v45z
" />
    <glyph glyph-name="s" unicode="s" horiz-adv-x="939" 
d="M368 1169l15 -43h43l41 29h227l71 14l15 -14l-15 -14v-85l43 -55v-41l-58 -58h-13q-91 91 -199 140h-282q0 -34 -84 -97v-27q0 -114 84 -114q68 -51 156 -68v-14l14 14h13q99 -27 99 -70l16 13h41q43 -42 185 -97q127 -169 127 -238h13q0 -310 -311 -390l-268 -56
q-259 0 -437 198l-30 52v70l142 140l183 71l14 -15v-42q0 -97 -156 -97l-27 -69q30 -167 98 -167l16 13h12q82 -42 171 -42q260 0 326 180l13 16v110q-162 171 -339 197q0 27 -43 27l-43 -14l-255 153l-28 223q60 110 198 196l199 57z" />
    <glyph glyph-name="t" unicode="t" horiz-adv-x="977" 
d="M998 1207h28l39 -43l-53 -210q34 0 94 -103l-68 -76q-112 163 -161 163l-12 -13q-31 76 -108 76v29h-54l-26 -150q17 -150 39 -150l-13 -104v-179l13 -61l-13 -58v-29q26 -34 26 -106l67 -13h41l13 13h15l12 -13v-16q-12 -105 -40 -105h-498l-67 -14l-13 14v76
q0 29 93 45l41 87v47l13 209l-13 43l13 60l-13 104l13 76l-13 15v14l13 61l-26 29v29l26 31l-26 59q-165 0 -309 -238h-40l-28 29v29q53 64 53 121v88l-12 76l53 29q188 -7 188 -29l54 15l579 -15q34 0 80 58z" />
    <glyph glyph-name="u" unicode="u" horiz-adv-x="1182" 
d="M-49 1169h72l12 -14l14 14h125l111 -14l110 14h125l29 -29v-12q0 -26 -99 -61l-39 -324l-22 -187l-119 12l141 -45q53 -336 165 -336l13 -15h70q134 0 194 177l-15 14v14q0 75 29 75l-14 13v397l86 54l-72 -13q-33 225 -153 225v12l41 29l153 -14l223 14l13 -14v-15
q0 -22 -139 -58l-29 -46l17 -247v-307q0 -310 -320 -456h-55q-389 0 -512 220l-57 763l-14 14q0 71 -99 71l-12 17v29z" />
    <glyph glyph-name="v" unicode="v" horiz-adv-x="1258" 
d="M101 1169l42 -14l56 14l13 -14v-16l232 16h84l67 14l29 -45q0 -38 -125 -57l125 -405l40 -145q19 0 68 201q29 0 122 335l-93 71l27 31h424l27 -31v-12q0 -21 -122 -59l-276 -667q-91 -194 -124 -335h-189q-84 63 -84 218q-24 0 -53 160l95 27v16q-136 0 -136 45
l-207 507q-49 58 -110 58l-27 42q0 31 95 45z" />
    <glyph glyph-name="w" unicode="w" horiz-adv-x="1309" 
d="M48 1141h236l130 15l25 -29l142 29l15 -15v-14l66 14h104l155 15l12 -15v-28q0 -21 -104 -57l79 -257q43 -199 79 -199h12v42l130 414q-103 7 -103 41q0 35 64 44v-14l54 29l50 -15l117 15l54 -15l104 15v-29q0 -24 -118 -71l-352 -970q-60 -29 -170 -29l-130 399v16
l13 12v16h-27l-141 -400l-145 -43q-54 0 -115 299q-36 0 -81 172l15 13v15q-30 12 -155 314v13l10 16v13q-73 144 -156 144l-39 41q0 44 170 44zM399 1102v-12l169 -471h18q38 27 107 214q-100 284 -215 284h-32z" />
    <glyph glyph-name="x" unicode="x" horiz-adv-x="1207" 
d="M292 1156h230l28 -29v-16q0 -29 -43 -29l-15 -15v-14q58 -154 115 -193h15l84 148v45q-54 0 -54 42l41 46h29l56 -14l57 29l144 -15l187 15l12 -15v-14q0 -45 -86 -45q-87 -47 -299 -383h-42l27 -28l-12 -15v-16q134 -166 185 -337v-15l-30 -45h15l26 74h17l228 -190v-15
q0 -34 -215 -42l-127 12l-273 -12l-15 12v30l15 15q101 47 101 74l-128 176q-214 -326 -329 -424l-257 -119l-55 17l-99 -17v17l-14 -17h-15l-160 30q11 89 47 89l157 -46q133 0 297 308q34 0 257 337v32l-28 41v74q-94 0 -174 222q-101 125 -227 161v29q0 45 327 45z" />
    <glyph glyph-name="y" unicode="y" horiz-adv-x="1105" 
d="M512 1140l20 -21q0 -16 -40 -55l-4 -13q0 -20 31 -74q14 -45 105 -166q51 78 72 141q13 0 27 88q0 24 -54 58l-4 3v4q10 28 36 28l90 -4q4 11 23 11v-4l4 4l184 -7l18 3l11 -3l109 10l3 -3v-4q0 -49 -23 -49q-48 -3 -105 -64l-105 -177q-7 0 -82 -152q-63 -64 -63 -129
l-3 -17l3 -3v-4l-3 -3l3 -3v-27l-3 -3l3 -4v-88l-3 -3l3 -4v-127q0 -123 56 -153q31 -5 53 -25v-7q-3 -35 -36 -35h-86l-29 -8h-135l-3 3l-4 -3l-10 3l-102 -3v3l-3 -3h-131q-20 13 -20 32q10 21 96 51q36 43 55 94l10 14l-24 23v56l4 35q-11 0 70 19l-84 21h1l-3 4l21 61
q-21 121 -71 164q-136 216 -249 356q-54 90 -109 90l-26 16v11q0 28 56 28q187 14 450 14z" />
    <glyph glyph-name="z" unicode="z" horiz-adv-x="1118" 
d="M86 1124h976l27 -27v-56q-414 -523 -594 -808l-22 5l-1 -32l-67 19l40 -60h14q445 0 445 207l16 14h156l29 -27v-152l-16 -53l16 -55q0 -42 -231 -42h-644q-230 0 -230 42v27l402 533l128 148l103 -14l-57 62l68 159h-113q-287 0 -287 -178h-172l-29 27l14 68l-14 70
q12 123 43 123z" />
    <glyph glyph-name="braceleft" unicode="{" horiz-adv-x="983" 
d="M841 -407v-35q-167 23 -271.5 135.5t-104.5 249.5q0 72 23 167.5t23 148.5q0 72 -60.5 134.5t-167.5 76.5v41q107 14 167.5 76t60.5 135q0 53 -23 148t-23 168q0 136 104.5 249t271.5 135v-35q-117 -28 -171.5 -91.5t-54.5 -139.5q0 -59 22.5 -155.5t22.5 -164.5
q0 -101 -74 -196t-221 -147q144 -53 219.5 -150t75.5 -198q0 -68 -22.5 -164.5t-22.5 -155.5q0 -76 54.5 -139.5t171.5 -92.5z" />
    <glyph glyph-name="braceright" unicode="}" horiz-adv-x="983" 
d="M177 1387v35q167 -22 271.5 -134.5t104.5 -250.5q0 -72 -23 -167t-23 -148q0 -72 60.5 -134.5t167.5 -76.5v-41q-107 -14 -167.5 -76.5t-60.5 -134.5q0 -53 23 -148.5t23 -167.5q0 -136 -104.5 -249t-271.5 -136v35q117 29 171.5 92t54.5 140q0 59 -23 155.5t-23 163.5
q0 102 74.5 197t221.5 147q-144 53 -220 150t-76 198q0 68 23 164.5t23 155.5q0 76 -54.5 139.5t-171.5 91.5z" />
    <glyph glyph-name="asciitilde" unicode="~" horiz-adv-x="1108" 
d="M1042 675h45q-4 -130 -74 -203.5t-171 -73.5q-46 0 -99 15.5t-274 105.5q-154 64 -219 64q-70 0 -118 -43t-68 -140h-44q6 135 74 206.5t160 71.5q44 0 90 -14q104 -30 274 -102l10 -57l55 27q104 -43 173 -43q75 0 126 48t60 138z" />
    <glyph glyph-name="Adieresis" unicode="&#xc4;" horiz-adv-x="1648" 
d="M1706 1377v-20q0 -42 -57 -42q-189 0 -189 -511l37 -408v-287q1 -71 227 -202l-57 -62h-757l-57 62l38 40h113l95 265l-18 122l18 165q0 56 -417 121h-171q0 -96 -208 -551q-332 -491 -853 -491l-75 41l38 104h227l95 81q76 0 76 61q71 76 114 244q57 287 113 287v81
l-38 62v19q0 42 57 42v62q0 67 -95 225q0 40 76 40q114 0 247 164q71 143 473 308h209l283 -22l247 41l19 -19l151 19zM1092 989q-18 245 -50 245h-18l-84 -24q-199 -108 -249 -310v-22q0 -49 383 -89h18l-18 111q0 67 34 67z" />
    <glyph glyph-name="Ccedilla" unicode="&#xc7;" horiz-adv-x="1252" 
d="M968 1431l391 -21l61 -369l-19 -19h-42q-144 307 -371 307q-452 -70 -452 -246q-109 0 -124 -449q0 -523 618 -651h62q287 0 452 121l21 -19v-60q-84 -145 -535 -166q-377 0 -598 185l62 21v20q-256 0 -391 305v164q0 85 -103 204q45 0 187 264q235 409 781 409zM437 35
h60l-50 -79q63 -16 94 -54t31 -92q0 -72 -60 -126.5t-155 -54.5q-37 0 -94 7v43q28 -4 48 -4q51 0 86 33.5t35 76.5q0 30 -23 52t-57 22q-10 0 -26 -2z" />
    <glyph glyph-name="Eacute" unicode="&#xc9;" horiz-adv-x="1258" 
d="M1220 289q-5 -62 -17 -176q-13 -31 -35 -86q-5 -24 -18 -67q-5 -14 -31 -44q-32 -38 -51 -38h-304q-9 0 -108.5 3t-108.5 3h-184q-8 0 -74.5 6.5t-74.5 6.5h-181l-15 18q13 16 105 71q61 40 61 96v378q0 91 30 247q-17 48 -7 118q-21 20 -21 53q0 1 23 96q2 10 -12 34
q-16 31 -18 31q-9 27 -9 80q2 74 2 81q-3 41 -16 66q-19 36 -59 53q-36 19 -73 35q18 39 37 41q36 -4 106 -2q77 18 75 18h213q3 0 71 -9t103 -9q15 -1 239 15q51 5 270 -6q19 -15 19 -33q0 -11 -8 -32t-8 -29q-1 -40 -24 -261q-5 -8 -35 -23q-8 12 -45 128q-23 75 -88 83
q-6 2 -43 11q-30 5 -48 5q-12 0 -21 -3q-52 -14 -228 -2q-98 7 -146 -4q-15 -3 -20 -27q43 -142 3 -248q3 7 3 -59q0 -19 -6 -70q-5 -44 -2 -70q0 -12 22 -31h451q22 8 43 13q34 12 47 39q12 31 43 86q32 0 21 2q19 -4 29 -29q-5 -68 -10 -175q0 -71 -17 -207
q-5 -19 -48 -14q-14 30 -55 76q-24 20 -74 39q-43 17 -58 17h-166q-16 0 -61 6t-67 6q-65 0 -81 -37q-19 -43 -19 -64q0 -22 8 -84q9 -58 7 -90q-1 -17 -12 -65q-9 -45 -9 -70q0 -20 4 -37q9 -29 66.5 -69.5t96.5 -45.5q7 -3 12 -6q14 -4 22 -4h199q66 0 113 21
q63 29 122 97q67 74 71 140q30 21 79 7zM867 1655q26 42 18.5 86.5t-42.5 66.5q-52 32 -183 -96q-103 -100 -165.5 -159.5t-86.5 -76.5l-18 -28l33 -20q76 20 227 91q188 90 217 136z" />
    <glyph glyph-name="Ntilde" unicode="&#xd1;" horiz-adv-x="1479" 
d="M1289 258l-10 -16l-6 8l6 37q0 -2 4 -15.5t6 -13.5zM168 1705h81l46 -40h142q34 -38 130 -38v-18l14 18h19q32 0 32 -57l14 -20q0 -37 96 -37q738 -841 738 -1038h48v57q-34 39 -48 250l48 135v37q-48 0 -48 38v39l14 21q-8 287 -207 287l-16 21v18q20 96 49 96h30
l112 -39l66 18l112 -39l210 39l13 -18v-75q-160 -108 -160 -270v-251l-15 -96l15 -135l18 -555q33 0 111 -171q149 -115 267 -104l112 -4l15 -98q-85 -102 -138 -102h-175q-249 0 -611 479v19q0 37 64 37v38l-95 -18q-147 142 -322 500q-207 307 -207 363h-65l17 -93
l-17 -60l17 -96v-191l-48 -58l81 -191l-16 -117l96 -114l16 20h63v-59l-33 -56l-159 17h-48l-46 -37l-274 -18l-31 55v98q71 0 112 76q46 0 46 190l32 80l-32 537l51 56v59l-51 77v58l18 96l-193 153h-80l-63 -21l-63 21l-15 -21q0 60 -67 60l-17 19v38q0 85 180 116z
M977 1554h-32q4 137 57 198t131 61q41 0 53 -7q-155 -129 54 -19q13 -4 95.5 -58.5t122.5 -54.5q30 -82 16 0q16 0 40.5 27t38.5 112h31q1 -93 -24.5 -147.5t-72 -85t-93.5 -30.5q-79 0 -188 78q8 33 -39 24q-32 21 -54 30t-43 9q-41 0 -65 -36q-11 -17 -28 -101z" />
    <glyph glyph-name="Odieresis" unicode="&#xd6;" horiz-adv-x="1626" 
d="M1618 764q-29 -22 0 -71q-5 -148 -11 -178q-18 -99 -78 -136q-8 -12 -8 -41.5t-6 -41.5q-121 -194 -294 -310q-189 -127 -387 -114q-28 -6 -60 -6t-231 46q-21 6 -60.5 36.5t-66.5 30.5q-13 0 -26 -6q-66 59 -131 117q-74 71 -95 148q-26 6 -42 41.5t-29 68.5
q-8 13 -8 28q0 22 13 52.5t13 43.5q0 24 -39 33q8 225 11 249q13 142 63 228q71 55 68 120q145 157 229 218q136 105 278 108l45 15q168 -6 337 -15q192 -18 297 -123l68 -61q42 -37 37 -90q108 -126 113 -390zM1247 558q15 28 15 68q0 30 -15 97t-13 99q-31 17 -49.5 69.5
t-35.5 71.5q-18 53 -70 105q0 2 -99 86l-148 24q-57 -12 -113 -21q-66 -19 -94 -61q-5 -24 -29 -61q-48 -9 -67 -70q-27 -75 -46 -91q-31 -115 -31 -176q0 -28 5 -51q6 -68 10 -133q7 -82 48 -117q7 -54 62 -98q78 -61 91 -80q18 -5 68 -30q41 -21 70 -21q11 0 24 2
q68 5 133 7q83 7 120 52q144 95 164 329zM866 1660q0 38 -31 66.5t-78 28.5q-43 0 -70.5 -30.5t-27.5 -78.5q0 -37 12 -75q15 -56 45 -56q39 0 94.5 53.5t55.5 91.5zM1142 1644q0 41 -32.5 69t-75.5 28q-98 0 -98 -109q0 -38 12 -76q14 -55 45 -55q37 0 92 53q57 55 57 90z
" />
    <glyph glyph-name="Udieresis" unicode="&#xdc;" horiz-adv-x="1559" 
d="M1725 1482q0 -48 -16 -49q-25 -3 -73 -15q-21 0 -58 -14q-41 -39 -49 -113q-5 -7 -10 -20q-8 -70 -5 -89q19 -115 19 -117v-97q0 -4 -4.5 -18.5t-6.5 -19.5q0 -11 2 -35q13 -101 13 -265q0 -2 -5 -8t-5 -12t2 -48q2 -31 0 -48q-5 -67 -24 -200q-7 -39 -45 -117
q-37 -80 -62 -116q-31 -38 -115 -97q-67 -46 -132 -93q-11 9 -31 9q-13 0 -81 -19q-17 -10 -56 -28q-7 -2 -21 5t-15 7h-97q18 0 -66 16q-29 2 -84 10q-34 18 -102 45q-22 2 -63 7q-13 2 -50 22q-234 133 -243 451l-12 400q-10 166 -36 494q-9 72 -56 102q-27 18 -63 24
q-29 6 -61 12q-3 9 -3 14q0 24 43 17q101 -11 231 -11h88q3 0 89.5 1.5t104.5 1.5q63 -2 183 6q13 -13 13 -24q0 -16 -34 -24q-23 -3 -47 -8q-6 -6 -22 -16q-11 -5 -28 -15q-20 -17 -25 -32q-12 -89 -42 -249q2 3 14 -41l-12 -67q6 -21 -5 13q-3 -13 5 -44q6 -42 8 -50
q1 -17 -6 -111q0 -6 6 -17q0 -6 -8 -93q-5 -28 9 -120q8 -10 17 -30q2 -6 8 -87q-2 -15 0 -46q5 -14 15 -38q5 -10 -2 -32q16 -21 45 -61q15 -28 63 -77q115 -81 183 -92q34 -5 81 -5h-79q72 0 156 81q82 79 103 157q10 70 25 172q11 64 0 178l5 486q-8 61 -28 173
q-14 40 -99 63q-16 3 -55 11q-8 13 -8 33q-5 0 39 5q98 11 186 -8q16 5 43 7q181 -3 206 -3q18 0 42 5q28 5 41 7q4 1 18.5 -2.5t20.5 -3.5q12 0 123 10zM886 1690q0 38 -31 66.5t-78 28.5q-43 0 -70.5 -30.5t-27.5 -78.5q0 -37 12 -75q15 -56 45 -56q39 0 94.5 53.5
t55.5 91.5zM1162 1674q0 41 -32.5 69t-75.5 28q-98 0 -98 -109q0 -38 12 -76q14 -55 45 -55q37 0 92 53q57 55 57 90z" />
    <glyph glyph-name="aacute" unicode="&#xe1;" horiz-adv-x="1151" 
d="M530 1140h142l178 -12l306 28l13 -16v-26q0 -29 -76 -43q-82 0 -91 -339l25 -284v-170q0 -108 154 -157v-12l-38 -42h-510l-38 42l26 29h77l63 183l-12 98l12 114l-280 71h-116q0 -67 -154 -412q-232 -310 -561 -310q-51 23 -51 44q24 0 39 71l64 -14h76l116 71
q0 39 52 98q58 296 99 296v57l-25 44v11q0 30 37 30v43q0 53 -62 156q0 26 127 40q140 203 307 256q0 37 101 55zM574 784v-15q0 -34 248 -63h10l-10 108l21 31q-21 0 -21 156l-11 14h-43q-153 -75 -194 -231zM833 1418q0 29 -26.5 49t-61.5 20q-53 0 -90 -106
q-29 -82 -47.5 -132t-28.5 -66v-19h33q47 34 125 118q96 104 96 136z" />
    <glyph glyph-name="agrave" unicode="&#xe0;" horiz-adv-x="1151" 
d="M530 1140h142l178 -12l306 28l13 -16v-26q0 -29 -76 -43q-82 0 -91 -339l25 -284v-170q0 -108 154 -157v-12l-38 -42h-510l-38 42l26 29h77l63 183l-12 98l12 114l-280 71h-116q0 -67 -154 -412q-232 -310 -561 -310q-51 23 -51 44q24 0 39 71l64 -14h76l116 71
q0 39 52 98q58 296 99 296v57l-25 44v11q0 30 37 30v43q0 53 -62 156q0 26 127 40q140 203 307 256q0 37 101 55zM574 784v-15q0 -34 248 -63h10l-10 108l21 31q-21 0 -21 156l-11 14h-43q-153 -75 -194 -231zM565 1457q-29 4 -52.5 -19.5t-28.5 -58.5q-7 -52 93 -104
q78 -39 124.5 -64.5t61.5 -37.5l19 -2l4 32q-27 52 -99 140q-91 110 -122 114z" />
    <glyph glyph-name="acircumflex" unicode="&#xe2;" horiz-adv-x="1114" 
d="M566 1125h142l178 -12l306 28l13 -16v-26q0 -29 -76 -43q-82 0 -91 -339l25 -284v-170q0 -108 154 -157v-12l-38 -42h-510l-38 42l26 29h77l63 183l-12 98l12 114l-280 71h-116q0 -67 -154 -412q-232 -310 -561 -310q-51 23 -51 44q24 0 39 71l64 -14h76l116 71
q0 39 52 98q58 296 99 296v57l-25 44v11q0 30 37 30v43q0 53 -62 156q0 26 127 40q140 203 307 256q0 37 101 55zM610 769v-15q0 -34 248 -63h10l-10 108l21 31q-21 0 -21 156l-11 14h-43q-153 -75 -194 -231zM506 1186l119 135q0 12 78 12v4l-55 8q17 42 31 42q0 41 48 58
h110q18 -38 71 -89l159 -177l-6 -23h-114l-31 23q-54 89 -71 89q-28 53 -39 53l-23 -38l-72 -108l-32 -23l-134 4v-4l-7 -4l-32 4l-25 -4q-4 23 25 38z" />
    <glyph glyph-name="adieresis" unicode="&#xe4;" horiz-adv-x="1114" 
d="M566 1125h142l178 -12l306 28l13 -16v-26q0 -29 -76 -43q-82 0 -91 -339l25 -284v-170q0 -108 154 -157v-12l-38 -42h-510l-38 42l26 29h77l63 183l-12 98l12 114l-280 71h-116q0 -67 -154 -412q-232 -310 -561 -310q-51 23 -51 44q24 0 39 71l64 -14h76l116 71
q0 39 52 98q58 296 99 296v57l-25 44v11q0 30 37 30v43q0 53 -62 156q0 26 127 40q140 203 307 256q0 37 101 55zM610 769v-15q0 -34 248 -63h10l-10 108l21 31q-21 0 -21 156l-11 14h-43q-153 -75 -194 -231zM832 1314q0 39 -31 68.5t-78 29.5q-43 0 -70.5 -31.5
t-27.5 -81.5q0 -38 12 -77q15 -58 45 -58q39 0 94.5 55.5t55.5 94.5zM1075 1309q0 43 -32.5 72t-75.5 29q-98 0 -98 -113q0 -39 12 -78q14 -57 45 -57q37 0 92 55q57 56 57 92z" />
    <glyph glyph-name="atilde" unicode="&#xe3;" horiz-adv-x="909" 
d="M1004 1140h142l178 -12l306 28l13 -16v-26q0 -29 -76 -43q-82 0 -91 -339l25 -284v-170q0 -108 154 -157v-12l-38 -42h-510l-38 42l26 29h77l63 183l-12 98l12 114l-280 71h-116q0 -67 -154 -412q-232 -310 -561 -310q-51 23 -51 44q24 0 39 71l64 -14h76l116 71
q0 39 52 98q58 296 99 296v57l-25 44v11q0 30 37 30v43q0 53 -62 156q0 26 127 40q140 203 307 256q0 37 101 55zM1048 784v-15q0 -34 248 -63h10l-10 108l21 31q-21 0 -21 156l-11 14h-43q-153 -75 -194 -231zM941 1195h-32q4 137 57 198t131 61q41 0 53 -7
q-155 -129 54 -19q13 -4 95.5 -58.5t122.5 -54.5q30 -82 16 0q16 0 40.5 27t38.5 112h31q1 -93 -24.5 -147.5t-72 -85t-93.5 -30.5q-79 0 -188 78q8 33 -39 24q-32 21 -54 30t-43 9q-41 0 -65 -36q-11 -17 -28 -101z" />
    <glyph glyph-name="ccedilla" unicode="&#xe7;" horiz-adv-x="1194" 
d="M495 1169h145l15 -16l14 16l73 -16h188l217 16l15 -16v-44q-38 -20 -73 -311q-79 -57 -129 -57q-30 0 -30 126q-26 0 -117 129l-231 58l-115 -14h-30q-108 -149 -144 -270q0 -242 217 -515q117 -70 262 -70l216 29q174 -13 174 -45v-41q0 -71 -362 -71h-406
q-33 28 -160 43q-246 171 -246 440q0 174 144 371q0 140 246 214q10 44 117 44zM297 120h46l-38 -58q48 -12 72 -40t24 -67q0 -53 -46 -93t-120 -40q-28 0 -72 5v32q22 -3 37 -3q39 0 66 24.5t27 56.5q0 22 -17.5 38t-43.5 16q-8 0 -20 -2z" />
    <glyph glyph-name="eacute" unicode="&#xe9;" horiz-adv-x="1194" 
d="M662 1433q0 29 -26.5 49t-61.5 20q-53 0 -90 -106q-29 -82 -47.5 -132t-28.5 -66v-19h33q47 34 125 118q96 104 96 136zM6 1169q146 -10 146 -46l13 16h684l64 14q0 -140 94 -310q-13 -43 -80 -43q-104 191 -301 265h-158l-14 -14h-13l13 -16v-28l-26 -45v-102l-12 -90
l12 -44h-12l12 -90l91 16h28l53 -16q183 37 183 134h13l39 -44l-12 -44l26 -222l-41 -30h-12l-13 14q0 120 -277 120h-38l-27 -30l13 -119l-13 -14h-13l26 -90v-104q0 -28 80 -28l26 -30l14 16h12l117 -16l42 16l116 -16h66l40 30h14l53 -14q93 0 184 162l52 -104l-40 -146
l-355 -16h-697l-39 -30h-93q-26 9 -52 74l118 44v147l27 44v296l-12 164l12 118l-55 89q-25 0 -25 58q-65 0 -65 30v44l12 14v16zM172 712l23 -29h12v45z" />
    <glyph glyph-name="egrave" unicode="&#xe8;" horiz-adv-x="1194" 
d="M494 1498q-27 10 -55 -7.5t-41 -49.5q-19 -50 67 -122q66 -57 106 -92t52 -50l17 -7l12 31q-14 56 -65 159q-63 127 -93 138zM6 1175q146 -10 146 -46l13 16h684l64 14q0 -140 94 -310q-13 -43 -80 -43q-104 191 -301 265h-158l-14 -14h-13l13 -16v-28l-26 -45v-102
l-12 -90l12 -44h-12l12 -90l91 16h28l53 -16q183 37 183 134h13l39 -44l-12 -44l26 -222l-41 -30h-12l-13 14q0 120 -277 120h-38l-27 -30l13 -119l-13 -14h-13l26 -90v-104q0 -28 80 -28l26 -30l14 16h12l117 -16l42 16l116 -16h66l40 30h14l53 -14q93 0 184 162l52 -104
l-40 -146l-355 -16h-697l-39 -30h-93q-26 9 -52 74l118 44v147l27 44v296l-12 164l12 118l-55 89q-25 0 -25 58q-65 0 -65 30v44l12 14v16zM172 718l23 -29h12v45z" />
    <glyph glyph-name="ecircumflex" unicode="&#xea;" horiz-adv-x="1194" 
d="M215 1247l120 135q0 12 78 12v4l-55 8q17 42 30 42q0 41 49 58h109q19 -38 72 -89l158 -177l-6 -23h-113l-32 23q-54 89 -70 89q-29 53 -40 53l-23 -38l-72 -108l-32 -23l-133 4v-4l-8 -4l-32 4l-24 -4q-4 23 24 38zM6 1149q146 -10 146 -46l13 16h684l64 14
q0 -140 94 -310q-13 -43 -80 -43q-104 191 -301 265h-158l-14 -14h-13l13 -16v-28l-26 -45v-102l-12 -90l12 -44h-12l12 -90l91 16h28l53 -16q183 37 183 134h13l39 -44l-12 -44l26 -222l-41 -30h-12l-13 14q0 120 -277 120h-38l-27 -30l13 -119l-13 -14h-13l26 -90v-104
q0 -28 80 -28l26 -30l14 16h12l117 -16l42 16l116 -16h66l40 30h14l53 -14q93 0 184 162l52 -104l-40 -146l-355 -16h-697l-39 -30h-93q-26 9 -52 74l118 44v147l27 44v296l-12 164l12 118l-55 89q-25 0 -25 58q-65 0 -65 30v44l12 14v16z" />
    <glyph glyph-name="edieresis" unicode="&#xeb;" horiz-adv-x="1201" 
d="M490 1329q0 39 -31 68.5t-78 29.5q-43 0 -70.5 -31.5t-27.5 -81.5q0 -38 12 -77q15 -58 45 -58q39 0 94.5 55.5t55.5 94.5zM733 1324q0 43 -32.5 72t-75.5 29q-98 0 -98 -113q0 -39 12 -78q14 -57 45 -57q37 0 92 55q57 56 57 92zM6 1149q146 -10 146 -46l13 16h684
l64 14q0 -140 94 -310q-13 -43 -80 -43q-104 191 -301 265h-158l-14 -14h-13l13 -16v-28l-26 -45v-102l-12 -90l12 -44h-12l12 -90l91 16h28l53 -16q183 37 183 134h13l39 -44l-12 -44l26 -222l-41 -30h-12l-13 14q0 120 -277 120h-38l-27 -30l13 -119l-13 -14h-13l26 -90
v-104q0 -28 80 -28l26 -30l14 16h12l117 -16l42 16l116 -16h66l40 30h14l53 -14q93 0 184 162l52 -104l-40 -146l-355 -16h-697l-39 -30h-93q-26 9 -52 74l118 44v147l27 44v296l-12 164l12 118l-55 89q-25 0 -25 58q-65 0 -65 30v44l12 14v16z" />
    <glyph glyph-name="iacute" unicode="&#xed;" horiz-adv-x="601" 
d="M45 1129h27q0 -42 64 -42l80 13l211 -13l63 42h53l27 -29v-68l-27 -41l-12 14h-52q0 -54 -52 -54v-181l-28 -39l28 -84v-370l79 -69h11l65 14l27 -41l-27 -41l27 -54l-11 -14l-55 14h-26v-14l-130 14h-223l-147 -27l-11 13v81l66 55q0 40 26 40l27 -26l25 26l-25 277
l39 41v109l13 68q-68 14 -68 54l41 113v13l-25 28l-40 -14q0 25 -79 54v83l39 41v14zM490 1405q0 27 -30.5 46t-71.5 19q-61 0 -103 -99q-34 -77 -55 -123.5t-33 -61.5v-18h38q54 32 144 110q111 97 111 127z" />
    <glyph glyph-name="igrave" unicode="&#xec;" horiz-adv-x="601" 
d="M45 1129h27q0 -42 64 -42l80 13l211 -13l63 42h53l27 -29v-68l-27 -41l-12 14h-52q0 -54 -52 -54v-181l-28 -39l28 -84v-370l79 -69h11l65 14l27 -41l-27 -41l27 -54l-11 -14l-55 14h-26v-14l-130 14h-223l-147 -27l-11 13v81l66 55q0 40 26 40l27 -26l25 26l-25 277
l39 41v109l13 68q-68 14 -68 54l41 113v13l-25 28l-40 -14q0 25 -79 54v83l39 41v14zM217 1468q-27 3 -49.5 -25t-27.5 -68q-8 -60 84 -116q72 -43 115.5 -70t56.5 -41l18 -2l5 38q-24 58 -90 157q-82 123 -112 127z" />
    <glyph glyph-name="icircumflex" unicode="&#xee;" horiz-adv-x="601" 
d="M45 1129h27q0 -42 64 -42l80 13l211 -13l63 42h53l27 -29v-68l-27 -41l-12 14h-52q0 -54 -52 -54v-181l-28 -39l28 -84v-370l79 -69h11l65 14l27 -41l-27 -41l27 -54l-11 -14l-55 14h-26v-14l-130 14h-223l-147 -27l-11 13v81l66 55q0 40 26 40l27 -26l25 26l-25 277
l39 41v109l13 68q-68 14 -68 54l41 113v13l-25 28l-40 -14q0 25 -79 54v83l39 41v14zM15 1202l120 135q0 12 78 12v4l-55 8q17 42 30 42q0 41 49 58h109q19 -38 72 -89l158 -177l-6 -23h-113l-32 23q-54 89 -70 89q-29 53 -40 53l-23 -38l-72 -108l-32 -23l-133 4v-4l-8 -4
l-32 4l-24 -4q-4 23 24 38z" />
    <glyph glyph-name="idieresis" unicode="&#xef;" horiz-adv-x="601" 
d="M45 1129h27q0 -42 64 -42l80 13l211 -13l63 42h53l27 -29v-68l-27 -41l-12 14h-52q0 -54 -52 -54v-181l-28 -39l28 -84v-370l79 -69h11l65 14l27 -41l-27 -41l27 -54l-11 -14l-55 14h-26v-14l-130 14h-223l-147 -27l-11 13v81l66 55q0 40 26 40l27 -26l25 26l-25 277
l39 41v109l13 68q-68 14 -68 54l41 113v13l-25 28l-40 -14q0 25 -79 54v83l39 41v14zM297 1329q0 39 -31 68.5t-78 29.5q-43 0 -70.5 -31.5t-27.5 -81.5q0 -38 12 -77q15 -58 45 -58q39 0 94.5 55.5t55.5 94.5zM540 1324q0 43 -32.5 72t-75.5 29q-98 0 -98 -113
q0 -39 12 -78q14 -57 45 -57q37 0 92 55q57 56 57 92z" />
    <glyph glyph-name="ntilde" unicode="&#xf1;" horiz-adv-x="1054" 
d="M-119 1292h58l33 -29h101q24 -26 93 -26v-13l11 13h12q23 0 23 -41l10 -14q0 -26 69 -26q527 -595 527 -735h34v41q-23 27 -34 177l34 95v26q-34 0 -34 27v28l11 15q-6 203 -148 203l-12 14v14q15 67 35 67h22l80 -27l46 13l81 -28l149 28l9 -13v-54q-113 -76 -113 -191
v-177l-11 -68l11 -96l12 -393q23 0 80 -121q106 -81 191 -73l79 -4l11 -69q-60 -72 -99 -72h-124q-179 0 -437 339v14q0 26 46 26v27l-68 -13q-105 100 -230 354q-148 217 -148 257h-46l12 -66l-12 -42l12 -68v-135l-35 -42l58 -135l-11 -83l69 -80l11 14h45v-42l-24 -40
l-113 12h-35l-33 -25l-195 -14l-22 39v70q50 0 80 53q33 0 33 135l23 57l-23 380l36 40v41l-36 55v41l12 68l-137 108h-57l-45 -14l-46 14l-10 -14q0 42 -48 42l-12 13v27q0 61 128 82zM366 1171h-32q4 137 57 198t131 61q41 0 53 -7q-155 -129 54 -19q13 -4 95.5 -58.5
t122.5 -54.5q30 -82 16 0q16 0 40.5 27t38.5 112h31q1 -93 -24.5 -147.5t-72 -85t-93.5 -30.5q-79 0 -188 78q8 33 -39 24q-32 21 -54 30t-43 9q-41 0 -65 -36q-11 -17 -28 -101z" />
    <glyph glyph-name="oacute" unicode="&#xf3;" 
d="M1187 682q-21 -15 0 -50q-4 -105 -8 -127q-13 -70 -57 -97q-5 -8 -5 -29t-4 -30q-88 -138 -213 -221q-137 -90 -280 -81q-21 -4 -43 -4q-23 0 -168 33q-15 4 -43.5 26t-47.5 22q-9 0 -19 -5q-47 42 -95 84q-53 50 -68 105q-19 4 -30.5 29t-21.5 50q-5 8 -5 19
q0 16 9.5 37.5t9.5 30.5q0 18 -29 24q6 160 8 178q9 100 45 162q52 39 50 85q104 112 165 156q99 74 202 76l32 11q122 -4 243 -11q139 -13 215 -87l50 -44q30 -26 26 -64q78 -89 82 -278zM919 536q11 20 11 48q0 22 -11 69.5t-10 70.5q-22 12 -35.5 49.5t-25.5 50.5
q-13 38 -51 75q0 1 -71 61l-107 17q-41 -8 -82 -15q-48 -13 -68 -43q-4 -17 -21 -44q-35 -6 -49 -49q-19 -54 -33 -65q-22 -82 -22 -125q0 -20 3 -37q5 -48 8 -95q5 -58 35 -83q4 -38 44 -70q57 -43 66 -57q13 -3 49 -21q30 -15 51 -15q8 0 17 2q49 3 96 5q60 5 87 36
q104 68 119 235zM866 1426q0 29 -26.5 49t-61.5 20q-53 0 -90 -106q-29 -82 -47.5 -132t-28.5 -66v-19h33q47 34 125 118q96 104 96 136z" />
    <glyph glyph-name="ograve" unicode="&#xf2;" 
d="M1187 682q-21 -15 0 -50q-4 -105 -8 -127q-13 -70 -57 -97q-5 -8 -5 -29t-4 -30q-88 -138 -213 -221q-137 -90 -280 -81q-21 -4 -43 -4q-23 0 -168 33q-15 4 -43.5 26t-47.5 22q-9 0 -19 -5q-47 42 -95 84q-53 50 -68 105q-19 4 -30.5 29t-21.5 50q-5 8 -5 19
q0 16 9.5 37.5t9.5 30.5q0 18 -29 24q6 160 8 178q9 100 45 162q52 39 50 85q104 112 165 156q99 74 202 76l32 11q122 -4 243 -11q139 -13 215 -87l50 -44q30 -26 26 -64q78 -89 82 -278zM919 536q11 20 11 48q0 22 -11 69.5t-10 70.5q-22 12 -35.5 49.5t-25.5 50.5
q-13 38 -51 75q0 1 -71 61l-107 17q-41 -8 -82 -15q-48 -13 -68 -43q-4 -17 -21 -44q-35 -6 -49 -49q-19 -54 -33 -65q-22 -82 -22 -125q0 -20 3 -37q5 -48 8 -95q5 -58 35 -83q4 -38 44 -70q57 -43 66 -57q13 -3 49 -21q30 -15 51 -15q8 0 17 2q49 3 96 5q60 5 87 36
q104 68 119 235zM582 1469q-28 7 -54.5 -13t-35.5 -54q-14 -51 78 -115q71 -50 114.5 -81t55.5 -45l19 -5l9 32q-21 54 -81 152q-74 120 -105 129z" />
    <glyph glyph-name="ocircumflex" unicode="&#xf4;" 
d="M1187 682q-21 -15 0 -50q-4 -105 -8 -127q-13 -70 -57 -97q-5 -8 -5 -29t-4 -30q-88 -138 -213 -221q-137 -90 -280 -81q-21 -4 -43 -4q-23 0 -168 33q-15 4 -43.5 26t-47.5 22q-9 0 -19 -5q-47 42 -95 84q-53 50 -68 105q-19 4 -30.5 29t-21.5 50q-5 8 -5 19
q0 16 9.5 37.5t9.5 30.5q0 18 -29 24q6 160 8 178q9 100 45 162q52 39 50 85q104 112 165 156q99 74 202 76l32 11q122 -4 243 -11q139 -13 215 -87l50 -44q30 -26 26 -64q78 -89 82 -278zM919 536q11 20 11 48q0 22 -11 69.5t-10 70.5q-22 12 -35.5 49.5t-25.5 50.5
q-13 38 -51 75q0 1 -71 61l-107 17q-41 -8 -82 -15q-48 -13 -68 -43q-4 -17 -21 -44q-35 -6 -49 -49q-19 -54 -33 -65q-22 -82 -22 -125q0 -20 3 -37q5 -48 8 -95q5 -58 35 -83q4 -38 44 -70q57 -43 66 -57q13 -3 49 -21q30 -15 51 -15q8 0 17 2q49 3 96 5q60 5 87 36
q104 68 119 235zM417 1215l119 135q0 12 78 12v4l-55 8q17 42 31 42q0 41 48 58h110q18 -38 71 -89l159 -177l-6 -23h-114l-31 23q-54 89 -71 89q-28 53 -39 53l-23 -38l-72 -108l-32 -23l-134 4v-4l-7 -4l-32 4l-25 -4q-4 23 25 38z" />
    <glyph glyph-name="odieresis" unicode="&#xf6;" 
d="M1187 682q-21 -15 0 -50q-4 -105 -8 -127q-13 -70 -57 -97q-5 -8 -5 -29t-4 -30q-88 -138 -213 -221q-137 -90 -280 -81q-21 -4 -43 -4q-23 0 -168 33q-15 4 -43.5 26t-47.5 22q-9 0 -19 -5q-47 42 -95 84q-53 50 -68 105q-19 4 -30.5 29t-21.5 50q-5 8 -5 19
q0 16 9.5 37.5t9.5 30.5q0 18 -29 24q6 160 8 178q9 100 45 162q52 39 50 85q104 112 165 156q99 74 202 76l32 11q122 -4 243 -11q139 -13 215 -87l50 -44q30 -26 26 -64q78 -89 82 -278zM919 536q11 20 11 48q0 22 -11 69.5t-10 70.5q-22 12 -35.5 49.5t-25.5 50.5
q-13 38 -51 75q0 1 -71 61l-107 17q-41 -8 -82 -15q-48 -13 -68 -43q-4 -17 -21 -44q-35 -6 -49 -49q-19 -54 -33 -65q-22 -82 -22 -125q0 -20 3 -37q5 -48 8 -95q5 -58 35 -83q4 -38 44 -70q57 -43 66 -57q13 -3 49 -21q30 -15 51 -15q8 0 17 2q49 3 96 5q60 5 87 36
q104 68 119 235zM690 1336q0 38 -31 66.5t-78 28.5q-43 0 -70.5 -30.5t-27.5 -78.5q0 -37 12 -75q15 -56 45 -56q39 0 94.5 53.5t55.5 91.5zM966 1320q0 41 -32.5 69t-75.5 28q-98 0 -98 -109q0 -38 12 -76q14 -55 45 -55q37 0 92 53q57 55 57 90z" />
    <glyph glyph-name="otilde" unicode="&#xf5;" 
d="M1187 682q-21 -15 0 -50q-4 -105 -8 -127q-13 -70 -57 -97q-5 -8 -5 -29t-4 -30q-88 -138 -213 -221q-137 -90 -280 -81q-21 -4 -43 -4q-23 0 -168 33q-15 4 -43.5 26t-47.5 22q-9 0 -19 -5q-47 42 -95 84q-53 50 -68 105q-19 4 -30.5 29t-21.5 50q-5 8 -5 19
q0 16 9.5 37.5t9.5 30.5q0 18 -29 24q6 160 8 178q9 100 45 162q52 39 50 85q104 112 165 156q99 74 202 76l32 11q122 -4 243 -11q139 -13 215 -87l50 -44q30 -26 26 -64q78 -89 82 -278zM919 536q11 20 11 48q0 22 -11 69.5t-10 70.5q-22 12 -35.5 49.5t-25.5 50.5
q-13 38 -51 75q0 1 -71 61l-107 17q-41 -8 -82 -15q-48 -13 -68 -43q-4 -17 -21 -44q-35 -6 -49 -49q-19 -54 -33 -65q-22 -82 -22 -125q0 -20 3 -37q5 -48 8 -95q5 -58 35 -83q4 -38 44 -70q57 -43 66 -57q13 -3 49 -21q30 -15 51 -15q8 0 17 2q49 3 96 5q60 5 87 36
q104 68 119 235zM421 1187h-32q4 137 57 198t131 61q41 0 53 -7q-155 -129 54 -19q13 -4 95.5 -58.5t122.5 -54.5q30 -82 16 0q16 0 40.5 27t38.5 112h31q1 -93 -24.5 -147.5t-72 -85t-93.5 -30.5q-79 0 -188 78q8 33 -39 24q-32 21 -54 30t-43 9q-41 0 -65 -36
q-11 -17 -28 -101z" />
    <glyph glyph-name="uacute" unicode="&#xfa;" 
d="M29 1169h72l12 -14l14 14h125l111 -14l110 14h125l29 -29v-12q0 -26 -99 -61l-39 -324l-22 -187l-119 12l141 -45q53 -336 165 -336l13 -15h70q134 0 194 177l-15 14v14q0 75 29 75l-14 13v397l86 54l-72 -13q-33 225 -153 225v12l41 29l153 -14l223 14l13 -14v-15
q0 -22 -139 -58l-29 -46l17 -247v-307q0 -310 -320 -456h-55q-389 0 -512 220l-57 763l-14 14q0 71 -99 71l-12 17v29zM847 1501q0 35 -26.5 59.5t-61.5 24.5q-53 0 -90 -129q-29 -100 -47.5 -160.5t-28.5 -80.5v-23h33q47 41 125 143q96 127 96 166z" />
    <glyph glyph-name="ugrave" unicode="&#xf9;" 
d="M29 1169h72l12 -14l14 14h125l111 -14l110 14h125l29 -29v-12q0 -26 -99 -61l-39 -324l-22 -187l-119 12l141 -45q53 -336 165 -336l13 -15h70q134 0 194 177l-15 14v14q0 75 29 75l-14 13v397l86 54l-72 -13q-33 225 -153 225v12l41 29l153 -14l223 14l13 -14v-15
q0 -22 -139 -58l-29 -46l17 -247v-307q0 -310 -320 -456h-55q-389 0 -512 220l-57 763l-14 14q0 71 -99 71l-12 17v29zM576 1518q-34 8 -64 -12t-38 -54q-12 -52 105 -118q90 -51 144.5 -83t72.5 -46l22 -5l8 32q-30 55 -111 154q-101 123 -139 132z" />
    <glyph glyph-name="ucircumflex" unicode="&#xfb;" 
d="M29 1169h72l12 -14l14 14h125l111 -14l110 14h125l29 -29v-12q0 -26 -99 -61l-39 -324l-22 -187l-119 12l141 -45q53 -336 165 -336l13 -15h70q134 0 194 177l-15 14v14q0 75 29 75l-14 13v397l86 54l-72 -13q-33 225 -153 225v12l41 29l153 -14l223 14l13 -14v-15
q0 -22 -139 -58l-29 -46l17 -247v-307q0 -310 -320 -456h-55q-389 0 -512 220l-57 763l-14 14q0 71 -99 71l-12 17v29zM397 1228l119 135q0 12 78 12v4l-55 8q17 42 31 42q0 41 48 58h110q18 -38 71 -89l159 -177l-6 -23h-114l-31 23q-54 89 -71 89q-28 53 -39 53l-23 -38
l-72 -108l-32 -23l-134 4v-4l-7 -4l-32 4l-25 -4q-4 23 25 38z" />
    <glyph glyph-name="udieresis" unicode="&#xfc;" 
d="M29 1169h72l12 -14l14 14h125l111 -14l110 14h125l29 -29v-12q0 -26 -99 -61l-39 -324l-22 -187l-119 12l141 -45q53 -336 165 -336l13 -15h70q134 0 194 177l-15 14v14q0 75 29 75l-14 13v397l86 54l-72 -13q-33 225 -153 225v12l41 29l153 -14l223 14l13 -14v-15
q0 -22 -139 -58l-29 -46l17 -247v-307q0 -310 -320 -456h-55q-389 0 -512 220l-57 763l-14 14q0 71 -99 71l-12 17v29zM662 1355q0 38 -31 66.5t-78 28.5q-43 0 -70.5 -30.5t-27.5 -78.5q0 -37 12 -75q15 -56 45 -56q39 0 94.5 53.5t55.5 91.5zM938 1339q0 41 -32.5 69
t-75.5 28q-98 0 -98 -109q0 -38 12 -76q14 -55 45 -55q37 0 92 53q57 55 57 90z" />
    <glyph glyph-name="germandbls" unicode="&#xdf;" horiz-adv-x="1130" 
d="M597 1188l107 -13h67q207 -71 207 -139l60 -159q0 -172 -120 -172h-34v-47q214 -95 214 -291v-13q0 -121 -114 -232q-62 -46 -293 -66h-34q-147 0 -147 46v73q0 56 80 66l74 -13q59 0 107 258q-41 84 -121 139l-40 -13l-53 60h-20l-107 -14l-7 7v33q53 89 74 99l100 -26
q19 13 80 13q40 84 40 113v39q0 62 -67 87q-82 26 -140 26h-47q-93 -24 -93 -79l-7 -199l14 -675l-7 -47q0 -33 40 -132l-7 -7h-6q0 -43 100 -79l13 -20v-6l-20 -53l-134 6l-60 -13l-66 13l-67 -13q-26 13 -74 13l-120 -6l-20 53v6q26 28 94 60l20 39q-14 0 -14 20
q13 31 27 33l-13 40l13 13l-13 53l26 47l-6 556l-14 79l14 93v26q0 30 -27 53l13 106l-60 27l-33 -20h-7l-13 13v66l53 60l294 -27l154 27l6 -7v-6z" />
    <glyph glyph-name="registered" unicode="&#xae;" horiz-adv-x="1509" 
d="M758 1491q190 0 371 -97.5t282 -279t101 -378.5q0 -195 -99.5 -375t-279 -279.5t-375.5 -99.5t-375.5 99.5t-279.5 279.5t-100 375q0 197 101.5 378.5t282.5 279t371 97.5zM758 1366q-159 0 -309.5 -81.5t-235.5 -233t-85 -315.5q0 -163 83.5 -312.5t233.5 -233
t313 -83.5t313 83.5t233 233t83 312.5q0 164 -84.5 315.5t-235.5 233t-309 81.5zM427 319v812h279q143 0 207 -22.5t102 -78.5t38 -119q0 -89 -63.5 -155t-168.5 -74q43 -18 69 -43q49 -48 120 -161l99 -159h-160l-72 128q-85 151 -137 189q-36 28 -105 28h-77v-345h-131z
M558 776h159q114 0 155.5 34t41.5 90q0 36 -20 64.5t-55.5 42.5t-131.5 14h-149v-245z" />
    <glyph glyph-name="copyright" unicode="&#xa9;" horiz-adv-x="1509" 
d="M1522 752q0 323 -231 542q-232 222 -553 222q-326 0 -543 -229.5t-217 -555.5q0 -323 227 -541q226 -217 553 -217q326 0 545 226q219 229 219 553zM1377 752q0 -269 -174 -455q-183 -195 -445 -195q-270 0 -456 174q-195 183 -195 447q0 266 178 457q178 192 443 192
q266 0 456 -178q193 -178 193 -442zM1053 522l-6 19q-4 4 -16 8q-13 -8 -19 -14q-35 -29 -45 -39q-59 -54 -115 -54h-53q-121 0 -233 113q-115 115 -115 229q0 88 65.5 160t153.5 72q62 0 148 -49q28 -17 48.5 -30t31.5 -22l-15 -38q-4 -13 -8 -58l-4 -8l6 -37h31v45
q0 55 39 119l65 111q19 28 27 44.5l8 16.5l-6 12l-12 8q-11 0 -23 -12l-33 -24q-41 12 -47 12q-4 2 -21.5 5t-47.5 11q-48 11 -72 11q-41 0 -115 -29q-178 -74 -268 -225q-49 -84 -49 -150v-84q0 -53 47 -135q129 -215 321 -215q95 0 183 51q32 23 59 49.5t49 55.5
q41 51 41 71z" />
    <glyph glyph-name="trademark" unicode="&#x2122;" horiz-adv-x="2007" 
d="M51 1356h728l22 -201h-34q-10 72 -52.5 106.5t-141.5 34.5h-75v-579q0 -84 20 -106.5t86 -25.5v-36h-374v36q65 6 82.5 27.5t17.5 103.5v580h-76q-95 0 -135 -31.5t-55 -109.5h-34zM1156 1356l273 -572l265 572h279v-37q-56 -1 -74.5 -11t-27.5 -32t-9 -92v-468
q0 -85 19 -106t92 -25v-36h-398v36q59 1 79.5 12t30 32t9.5 86v492l-307 -658h-32l-308 649v-482q0 -68 8.5 -88.5t27 -31.5t57.5 -11h36v-36h-306v36q56 0 75.5 10t28.5 31t9 90v466q0 76 -8.5 96t-28.5 30.5t-76 10.5v37h286z" />
    <glyph glyph-name="acute" unicode="&#xb4;" horiz-adv-x="682" 
d="M495 1347q0 35 -26.5 59.5t-61.5 24.5q-53 0 -90 -129q-29 -100 -47.5 -160.5t-28.5 -80.5v-23h33q47 41 125 143q96 127 96 166z" />
    <glyph glyph-name="dieresis" unicode="&#xa8;" horiz-adv-x="682" 
d="M312 1267q0 38 -31 66.5t-78 28.5q-43 0 -70.5 -30.5t-27.5 -78.5q0 -37 12 -75q15 -56 45 -56q39 0 94.5 53.5t55.5 91.5zM588 1251q0 41 -32.5 69t-75.5 28q-98 0 -98 -109q0 -38 12 -76q14 -55 45 -55q37 0 92 53q57 55 57 90z" />
    <glyph glyph-name="AE" unicode="&#xc6;" horiz-adv-x="2555" 
d="M2121 1431l130 -483l-22 -27h-43q-233 376 -431 376h-172l21 -27l-43 -564l22 -27h21l86 27l108 -27q77 0 237 188l22 -27v-54l-22 -26l43 -349l-21 -27h-22q-107 188 -280 188h-129l-22 -27h-21l21 -134l-21 -108q0 -295 107 -295l151 -27h194l259 27v-27q110 0 194 215
h21q50 0 65 -135q0 -214 -215 -214h-1380l-43 53q194 44 194 349l-21 81l21 161v27l-452 107h-22q-241 -1047 -776 -1047h-129v81l43 80l22 -27h64q248 0 345 618l43 81l-21 134l21 188l-43 161v27q151 0 323 295q280 188 345 188l259 -27l582 27h344l22 27h21zM807 840
q80 -61 323 -80v161l22 27q-12 268 -86 268q-259 -172 -259 -376z" />
    <glyph glyph-name="ae" unicode="&#xe6;" horiz-adv-x="1993" 
d="M1655 1169l103 -352l-17 -19h-34q-188 273 -347 273h-138l17 -19l-34 -410l17 -20h17l69 20l87 -20q61 0 190 137l18 -20v-39l-18 -19l35 -254l-17 -20h-18q-86 137 -225 137h-103l-18 -20h-17l17 -97l-17 -79q0 -214 86 -214l122 -20h155l208 20v-20q89 0 156 156h17
q40 0 52 -97q0 -157 -173 -157h-1108l-34 39q156 32 156 254l-18 59l18 117v20l-364 78h-17q-194 -762 -623 -762h-104v59l35 58l17 -19h52q199 0 277 449l34 59l-17 97l17 137l-34 117v20q121 0 259 215q225 136 277 136l208 -19l467 19h277l17 20h18zM599 739
q64 -45 260 -58v117l17 19q-9 196 -69 196q-208 -126 -208 -274z" />
    <glyph glyph-name="questiondown" unicode="&#xbf;" horiz-adv-x="971" 
d="M879 323q-5 -31 14 -50t38 -37q5 -25 -13 -50q-24 -40 -26 -45q-57 -58 -195 -60q-35 -5 -41.5 42t-46.5 38q-26 -4 -47 -40t-31 -45q-77 -27 -125 5q-22 40 0 53q52 5 105 52q68 63 94 77q-4 42 33 101q41 65 46 94q-26 43 -26 155q-3 103 -38 153q-59 78 -231 95
t-224 98q-16 49 -16 52q0 18 13.5 25.5t26.5 7.5q28 0 61 -33q42 -45 55 -52q48 -22 131 -22h42h42q138 0 188 -86q66 -22 109 -101q36 -70 68 -137q-2 -16 -2 -29q0 -34 32 -86.5t32 -86.5q0 -14 -2 -25q-42 -47 -66 -63zM318 81q-28 -5 -55 -5q-138 0 -212 88
q-2 15 -20 92q-13 54 -13 90q0 63 42 110q32 27 78 27q25 0 44 -9q13 -18 13 -43t-16 -76.5t-16 -74.5q0 -49 48 -78q9 -14 70 -45q50 -23 46 -63zM373 1181q-20 -9 -77 -22q-57 9 -120 63q-13 27 -13 56q0 43 26 76q28 23 59 23q22 0 67 -17t69 -19q44 -29 44 -103
q-14 -36 -55 -57z" />
    <glyph glyph-name="exclamdown" unicode="&#xa1;" horiz-adv-x="438" 
d="M330 -249h-38q-30 24 -102.5 27.5t-100.5 20.5q-9 14 -9 28q0 -7 22 74q-7 40 -7 88q0 119 35 257q-32 121 0 226q7 22 7 55q0 22 -5.5 69.5t-5.5 68.5q0 79 70 90q35 -6 48 -50q11 -33 22 -68q2 -22 17.5 -67t15.5 -69q0 -31 -22 -57q-6 -10 -6 -22q0 -9 32 -59
q14 -79 14 -81q0 -26 -14 -45q-4 -15 -4 -29q0 -24 21 -70.5t21 -72.5q-9 -38 -9 -83q0 -17 22 -205q-2 -24 -24 -26zM200 953q-39 10 -72 43q-22 53 -22 77q0 16 5 28q17 69 61 74q39 4 94 -48q33 -50 26 -116q-15 -50 -92 -58z" />
    <glyph glyph-name="guillemotleft" unicode="&#xab;" horiz-adv-x="502" 
d="M477 1083q-4 31 -30.5 57.5t-57.5 26.5q-51 0 -90 -131l-76 -239v-25h33q22 23 59 66q162 186 162 245zM266 1085q0 33 -27.5 58.5t-60.5 25.5q-53 0 -90 -129q-29 -100 -47.5 -160.5t-28.5 -80.5v-23h33q47 51 77.5 87t47.5 59q96 127 96 163z" />
    <glyph glyph-name="guillemotright" unicode="&#xbb;" horiz-adv-x="502" 
d="M477 1083q-4 31 -30.5 57.5t-57.5 26.5q-51 0 -90 -131l-76 -239v-25h33q22 23 59 66q162 186 162 245zM266 1085q0 33 -27.5 58.5t-60.5 25.5q-53 0 -90 -129q-29 -100 -47.5 -160.5t-28.5 -80.5v-23h33q47 51 77.5 87t47.5 59q96 127 96 163z" />
    <glyph glyph-name="ellipsis" unicode="&#x2026;" horiz-adv-x="2048" 
d="M341 194q47 0 79 -32.5t32 -78.5t-32.5 -78.5t-78.5 -32.5t-78.5 32.5t-32.5 78.5q0 47 32.5 79t78.5 32zM1024 194q46 0 78.5 -32.5t32.5 -78.5t-32.5 -78.5t-78.5 -32.5t-78.5 32.5t-32.5 78.5q0 47 32.5 79t78.5 32zM1707 194q46 0 78.5 -32.5t32.5 -78.5t-32.5 -78.5
t-78.5 -32.5t-78.5 32.5t-32.5 78.5q0 47 32 79t79 32z" />
    <glyph glyph-name="Agrave" unicode="&#xc0;" horiz-adv-x="1648" 
d="M1706 1377v-20q0 -42 -57 -42q-189 0 -189 -511l37 -408v-287q1 -71 227 -202l-57 -62h-757l-57 62l38 40h113l95 265l-18 122l18 165q0 56 -417 121h-171q0 -96 -208 -551q-332 -491 -853 -491l-75 41l38 104h227l95 81q76 0 76 61q71 76 114 244q57 287 113 287v81
l-38 62v19q0 42 57 42v62q0 67 -95 225q0 40 76 40q114 0 247 164q71 143 473 308h209l283 -22l247 41l19 -19l151 19zM1092 989q-18 245 -50 245h-18l-84 -24q-199 -108 -249 -310v-22q0 -49 383 -89h18l-18 111q0 67 34 67zM803 1761q-48 7 -86 -17.5t-45 -64.5
q-9 -61 161 -131q132 -55 211.5 -89t104.5 -50l32 -5l6 38q-48 62 -173 173q-157 137 -211 146z" />
    <glyph glyph-name="Atilde" unicode="&#xc3;" horiz-adv-x="1648" 
d="M1706 1377v-20q0 -42 -57 -42q-189 0 -189 -511l37 -408v-287q1 -71 227 -202l-57 -62h-757l-57 62l38 40h113l95 265l-18 122l18 165q0 56 -417 121h-171q0 -96 -208 -551q-332 -491 -853 -491l-75 41l38 104h227l95 81q76 0 76 61q71 76 114 244q57 287 113 287v81
l-38 62v19q0 42 57 42v62q0 67 -95 225q0 40 76 40q114 0 247 164q71 143 473 308h209l283 -22l247 41l19 -19l151 19zM1092 989q-18 245 -50 245h-18l-84 -24q-199 -108 -249 -310v-22q0 -49 383 -89h18l-18 111q0 67 34 67zM756 1440h-32q4 137 57 198t131 61q41 0 53 -7
q-155 -129 54 -19q13 -4 95.5 -58.5t122.5 -54.5q30 -82 16 0q16 0 40.5 27t38.5 112h31q1 -93 -24.5 -147.5t-72 -85t-93.5 -30.5q-79 0 -188 78q8 33 -39 24q-32 21 -54 30t-43 9q-41 0 -65 -36q-11 -17 -28 -101z" />
    <glyph glyph-name="Otilde" unicode="&#xd5;" horiz-adv-x="1479" 
d="M1554 764q-29 -22 0 -71q-5 -148 -11 -178q-18 -99 -78 -136q-8 -12 -8 -41.5t-6 -41.5q-121 -194 -294 -310q-189 -127 -387 -114q-28 -6 -60 -6t-231 46q-21 6 -60.5 36.5t-66.5 30.5q-13 0 -26 -6q-66 59 -131 117q-74 71 -95 148q-26 6 -42 41.5t-29 68.5
q-8 13 -8 28q0 22 13 52.5t13 43.5q0 24 -39 33q8 225 11 249q13 142 63 228q71 55 68 120q145 157 229 218q136 105 278 108l45 15q168 -6 337 -15q192 -18 297 -123l68 -61q42 -37 37 -90q108 -126 113 -390zM1183 558q15 28 15 68q0 30 -15 97t-13 99q-31 17 -49.5 69.5
t-35.5 71.5q-18 53 -70 105q0 2 -99 86l-148 24q-57 -12 -113 -21q-66 -19 -94 -61q-5 -24 -29 -61q-48 -9 -67 -70q-27 -75 -46 -91q-31 -115 -31 -176q0 -28 5 -51q6 -68 10 -133q7 -82 48 -117q7 -54 62 -98q78 -61 91 -80q18 -5 68 -30q41 -21 70 -21q11 0 24 2
q68 5 133 7q83 7 120 52q144 95 164 329zM544 1465h-32q4 137 57 198t131 61q41 0 53 -7q-155 -129 54 -19q13 -4 95.5 -58.5t122.5 -54.5q30 -82 16 0q16 0 40.5 27t38.5 112h31q1 -93 -24.5 -147.5t-72 -85t-93.5 -30.5q-79 0 -188 78q8 33 -39 24q-32 21 -54 30t-43 9
q-41 0 -65 -36q-11 -17 -28 -101z" />
    <glyph glyph-name="OE" unicode="&#x152;" horiz-adv-x="2670" 
d="M1063 1414q327 24 327 -25l15 21h804l76 21q0 -197 111 -434q-17 -61 -94 -61q-123 267 -355 372h-186l-16 -20h-15l15 -23v-39l-31 -64v-142l-15 -126l15 -62h-15l15 -126l108 23h33l62 -23q215 52 215 188h16l45 -62l-14 -62l30 -310l-47 -42h-14l-16 19
q0 169 -326 169h-45l-31 -43l15 -167l-15 -19h-16l31 -126v-145q0 -40 94 -40l30 -42l17 23h14l137 -23l50 23l137 -23h78l47 42h16l62 -19q110 0 217 226l61 -145l-47 -205l-418 -22h-819l-47 -42h-109q-30 12 -145 80l152 155l71 137l31 61v414l-14 230l14 165l-64 125
q-30 0 -30 82q-76 0 -76 41v61l14 21zM1552 764q-29 -22 0 -71q-5 -148 -11 -178q-18 -99 -78 -136q-8 -12 -8 -41.5t-6 -41.5q-121 -194 -294 -310q-189 -127 -387 -114q-28 -6 -60 -6t-231 46q-21 6 -60.5 36.5t-66.5 30.5q-13 0 -26 -6q-66 59 -131 117q-74 71 -95 148
q-26 6 -42 41.5t-29 68.5q-8 13 -8 28q0 22 13 52.5t13 43.5q0 24 -39 33q8 225 11 249q13 142 63 228q71 55 68 120q145 157 229 218q136 105 278 108l45 15q168 -6 337 -15q192 -18 297 -123l68 -61q42 -37 37 -90q108 -126 113 -390zM1181 558q15 28 15 68q0 30 -15 97
t-13 99q-31 17 -49.5 69.5t-35.5 71.5q-18 53 -70 105q0 2 -99 86l-148 24q-57 -12 -113 -21q-66 -19 -94 -61q-5 -24 -29 -61q-48 -9 -67 -70q-27 -75 -46 -91q-31 -115 -31 -176q0 -28 5 -51q6 -68 10 -133q7 -82 48 -117q7 -54 62 -98q78 -61 91 -80q18 -5 68 -30
q41 -21 70 -21q11 0 24 2q68 5 133 7q83 7 120 52q144 95 164 329z" />
    <glyph glyph-name="oe" unicode="&#x153;" horiz-adv-x="1993" 
d="M497 1188q423 0 522 -177q75 -165 75 -235v-238q0 -68 -62 -176q-166 -325 -484 -325h-13q-398 0 -523 353l-12 15v16l12 13l-12 104v87q0 358 398 546zM182 555l46 -48l-56 -9l85 -43q0 -192 262 -294h113l52 -57l12 63q149 -6 192 429q-87 474 -329 474
q-122 0 -281 -234l-28 -265zM662 1165q272 17 272 -19l14 16h670l63 15q0 -146 93 -323q-15 -45 -79 -45q-102 199 -296 276h-155l-14 -14h-12l12 -17v-29l-25 -48v-107l-12 -93l12 -46h-12l12 -93l89 16h28l52 -16q179 39 179 139h14l37 -46l-11 -45l25 -231l-40 -31h-11
l-14 13q0 126 -272 126h-37l-26 -31l12 -125l-12 -15h-13l25 -93v-108q0 -30 79 -30l25 -31l14 16h12l114 -16l41 16l115 -16h65l39 31h13l52 -15q92 0 181 170l51 -110l-39 -151l-349 -17h-682l-40 -31h-90q-26 9 -122 59l127 116l60 101l25 46v309l-11 171l11 123l-53 93
q-25 0 -25 60q-63 0 -63 31v46l11 15z" />
    <glyph glyph-name="endash" unicode="&#x2013;" 
d="M1041 453h-1059v73h1059v-73z" />
    <glyph glyph-name="emdash" unicode="&#x2014;" horiz-adv-x="2048" 
d="M2066 453h-2085v74h2085v-74z" />
    <glyph glyph-name="quotedblleft" unicode="&#x201c;" horiz-adv-x="502" 
d="M477 1083q-4 31 -30.5 57.5t-57.5 26.5q-51 0 -90 -131l-76 -239v-25h33q22 23 59 66q162 186 162 245zM266 1085q0 33 -27.5 58.5t-60.5 25.5q-53 0 -90 -129q-29 -100 -47.5 -160.5t-28.5 -80.5v-23h33q47 51 77.5 87t47.5 59q96 127 96 163z" />
    <glyph glyph-name="quotedblright" unicode="&#x201d;" horiz-adv-x="502" 
d="M477 1083q-4 31 -30.5 57.5t-57.5 26.5q-51 0 -90 -131l-76 -239v-25h33q22 23 59 66q162 186 162 245zM266 1085q0 33 -27.5 58.5t-60.5 25.5q-53 0 -90 -129q-29 -100 -47.5 -160.5t-28.5 -80.5v-23h33q47 51 77.5 87t47.5 59q96 127 96 163z" />
    <glyph glyph-name="quoteleft" unicode="&#x2018;" horiz-adv-x="682" 
d="M444 1387v-43q-102 -62 -139 -115q-27 -39 -27 -92q0 -32 12 -47q11 -15 26 -15q10 0 28 7q27 9 44 9q40 0 71 -30t31 -75q0 -51 -31 -79q-43 -38 -100 -38q-68 0 -121 57t-53 141q0 118 88 215q59 64 171 105z" />
    <glyph glyph-name="quoteright" unicode="&#x2019;" horiz-adv-x="682" 
d="M238 869v47q103 61 140 114q26 38 26 91q0 31 -11 46q-12 15 -26 15q-11 0 -29 -7q-26 -9 -43 -9q-40 0 -71 30t-31 75q0 50 31 78q42 38 100 38q67 0 120.5 -56.5t53.5 -140.5q0 -118 -89 -215q-59 -64 -171 -106z" />
    <glyph glyph-name="periodcentered" unicode="&#xb7;" horiz-adv-x="512" 
d="M256 789q47 0 79 -32.5t32 -78.5t-32.5 -78.5t-78.5 -32.5t-78.5 32.5t-32.5 78.5t32.5 78.5t78.5 32.5z" />
    <glyph glyph-name="periodcentered" unicode="&#x2219;" horiz-adv-x="512" 
d="M256 789q47 0 79 -32.5t32 -78.5t-32.5 -78.5t-78.5 -32.5t-78.5 32.5t-32.5 78.5t32.5 78.5t78.5 32.5z" />
    <glyph glyph-name="quotesinglbase" unicode="&#x201a;" horiz-adv-x="682" 
d="M412 25q0 24 -20.5 46.5t-53.5 22.5q-51 0 -77 -63l-68 -154v-20h29q45 32 70.5 51.5t35.5 25.5q84 60 84 91z" />
    <glyph glyph-name="quotedblbase" unicode="&#x201e;" horiz-adv-x="909" 
d="M730 6q-4 31 -30.5 57.5t-57.5 26.5q-51 0 -90 -131l-76 -239v-25h33q22 23 59 66q162 186 162 245zM519 8q0 33 -27.5 58.5t-60.5 25.5q-53 0 -90 -129q-29 -100 -47.5 -160.5t-28.5 -80.5v-23h33q47 51 77.5 87t47.5 59q96 127 96 163z" />
    <glyph glyph-name="Acircumflex" unicode="&#xc2;" horiz-adv-x="1648" 
d="M1706 1377v-20q0 -42 -57 -42q-189 0 -189 -511l37 -408v-287q1 -71 227 -202l-57 -62h-757l-57 62l38 40h113l95 265l-18 122l18 165q0 56 -417 121h-171q0 -96 -208 -551q-332 -491 -853 -491l-75 41l38 104h227l95 81q76 0 76 61q71 76 114 244q57 287 113 287v81
l-38 62v19q0 42 57 42v62q0 67 -95 225q0 40 76 40q114 0 247 164q71 143 473 308h209l283 -22l247 41l19 -19l151 19zM1092 989q-18 245 -50 245h-18l-84 -24q-199 -108 -249 -310v-22q0 -49 383 -89h18l-18 111q0 67 34 67zM790 1482l120 123q0 11 78 11v4l-55 7
q17 38 30 38q0 38 49 53h109q19 -34 72 -81l158 -162l-6 -20h-113l-32 20q-54 81 -70 81q-29 49 -40 49l-23 -35l-72 -98l-32 -21l-133 3v-3l-8 -4l-32 4l-24 -4q-4 21 24 35z" />
    <glyph glyph-name="Ecircumflex" unicode="&#xca;" horiz-adv-x="1258" 
d="M1220 289q-5 -62 -17 -176q-13 -31 -35 -86q-5 -24 -18 -67q-5 -14 -31 -44q-32 -38 -51 -38h-304q-9 0 -108.5 3t-108.5 3h-184q-8 0 -74.5 6.5t-74.5 6.5h-181l-15 18q13 16 105 71q61 40 61 96v378q0 91 30 247q-17 48 -7 118q-21 20 -21 53q0 1 23 96q2 10 -12 34
q-16 31 -18 31q-9 27 -9 80q2 74 2 81q-3 41 -16 66q-19 36 -59 53q-36 19 -73 35q18 39 37 41q36 -4 106 -2q77 18 75 18h213q3 0 71 -9t103 -9q15 -1 239 15q51 5 270 -6q19 -15 19 -33q0 -11 -8 -32t-8 -29q-1 -40 -24 -261q-5 -8 -35 -23q-8 12 -45 128q-23 75 -88 83
q-6 2 -43 11q-30 5 -48 5q-12 0 -21 -3q-52 -14 -228 -2q-98 7 -146 -4q-15 -3 -20 -27q43 -142 3 -248q3 7 3 -59q0 -19 -6 -70q-5 -44 -2 -70q0 -12 22 -31h451q22 8 43 13q34 12 47 39q12 31 43 86q32 0 21 2q19 -4 29 -29q-5 -68 -10 -175q0 -71 -17 -207
q-5 -19 -48 -14q-14 30 -55 76q-24 20 -74 39q-43 17 -58 17h-166q-16 0 -61 6t-67 6q-65 0 -81 -37q-19 -43 -19 -64q0 -22 8 -84q9 -58 7 -90q-1 -17 -12 -65q-9 -45 -9 -70q0 -20 4 -37q9 -29 66.5 -69.5t96.5 -45.5q7 -3 12 -6q14 -4 22 -4h199q66 0 113 21
q63 29 122 97q67 74 71 140q30 21 79 7zM375 1489l120 123q0 11 78 11v4l-55 7q17 38 30 38q0 38 49 53h109q19 -34 72 -81l158 -162l-6 -20h-113l-32 20q-54 81 -70 81q-29 49 -40 49l-23 -35l-72 -98l-32 -21l-133 3v-3l-8 -4l-32 4l-24 -4q-4 21 24 35z" />
    <glyph glyph-name="Aacute" unicode="&#xc1;" horiz-adv-x="1648" 
d="M1706 1377v-20q0 -42 -57 -42q-189 0 -189 -511l37 -408v-287q1 -71 227 -202l-57 -62h-757l-57 62l38 40h113l95 265l-18 122l18 165q0 56 -417 121h-171q0 -96 -208 -551q-332 -491 -853 -491l-75 41l38 104h227l95 81q76 0 76 61q71 76 114 244q57 287 113 287v81
l-38 62v19q0 42 57 42v62q0 67 -95 225q0 40 76 40q114 0 247 164q71 143 473 308h209l283 -22l247 41l19 -19l151 19zM1092 989q-18 245 -50 245h-18l-84 -24q-199 -108 -249 -310v-22q0 -49 383 -89h18l-18 111q0 67 34 67zM1245 1677q24 42 16 86.5t-42 66.5
q-53 31 -183 -99q-101 -101 -162.5 -162t-86.5 -78l-16 -27l33 -20q75 21 225 94q187 93 216 139z" />
    <glyph glyph-name="Edieresis" unicode="&#xcb;" horiz-adv-x="1258" 
d="M1220 289q-5 -62 -17 -176q-13 -31 -35 -86q-5 -24 -18 -67q-5 -14 -31 -44q-32 -38 -51 -38h-304q-9 0 -108.5 3t-108.5 3h-184q-8 0 -74.5 6.5t-74.5 6.5h-181l-15 18q13 16 105 71q61 40 61 96v378q0 91 30 247q-17 48 -7 118q-21 20 -21 53q0 1 23 96q2 10 -12 34
q-16 31 -18 31q-9 27 -9 80q2 74 2 81q-3 41 -16 66q-19 36 -59 53q-36 19 -73 35q18 39 37 41q36 -4 106 -2q77 18 75 18h213q3 0 71 -9t103 -9q15 -1 239 15q51 5 270 -6q19 -15 19 -33q0 -11 -8 -32t-8 -29q-1 -40 -24 -261q-5 -8 -35 -23q-8 12 -45 128q-23 75 -88 83
q-6 2 -43 11q-30 5 -48 5q-12 0 -21 -3q-52 -14 -228 -2q-98 7 -146 -4q-15 -3 -20 -27q43 -142 3 -248q3 7 3 -59q0 -19 -6 -70q-5 -44 -2 -70q0 -12 22 -31h451q22 8 43 13q34 12 47 39q12 31 43 86q32 0 21 2q19 -4 29 -29q-5 -68 -10 -175q0 -71 -17 -207
q-5 -19 -48 -14q-14 30 -55 76q-24 20 -74 39q-43 17 -58 17h-166q-16 0 -61 6t-67 6q-65 0 -81 -37q-19 -43 -19 -64q0 -22 8 -84q9 -58 7 -90q-1 -17 -12 -65q-9 -45 -9 -70q0 -20 4 -37q9 -29 66.5 -69.5t96.5 -45.5q7 -3 12 -6q14 -4 22 -4h199q66 0 113 21
q63 29 122 97q67 74 71 140q30 21 79 7zM663 1642q0 39 -31 68.5t-78 29.5q-43 0 -70.5 -31.5t-27.5 -81.5q0 -38 12 -77q15 -58 45 -58q39 0 94.5 55.5t55.5 94.5zM944 1637q0 43 -32.5 72t-75.5 29q-98 0 -98 -113q0 -39 12 -78q14 -57 45 -57q37 0 92 55q57 56 57 92z
" />
    <glyph glyph-name="Egrave" unicode="&#xc8;" horiz-adv-x="1258" 
d="M1220 289q-5 -62 -17 -176q-13 -31 -35 -86q-5 -24 -18 -67q-5 -14 -31 -44q-32 -38 -51 -38h-304q-9 0 -108.5 3t-108.5 3h-184q-8 0 -74.5 6.5t-74.5 6.5h-181l-15 18q13 16 105 71q61 40 61 96v378q0 91 30 247q-17 48 -7 118q-21 20 -21 53q0 1 23 96q2 10 -12 34
q-16 31 -18 31q-9 27 -9 80q2 74 2 81q-3 41 -16 66q-19 36 -59 53q-36 19 -73 35q18 39 37 41q36 -4 106 -2q77 18 75 18h213q3 0 71 -9t103 -9q15 -1 239 15q51 5 270 -6q19 -15 19 -33q0 -11 -8 -32t-8 -29q-1 -40 -24 -261q-5 -8 -35 -23q-8 12 -45 128q-23 75 -88 83
q-6 2 -43 11q-30 5 -48 5q-12 0 -21 -3q-52 -14 -228 -2q-98 7 -146 -4q-15 -3 -20 -27q43 -142 3 -248q3 7 3 -59q0 -19 -6 -70q-5 -44 -2 -70q0 -12 22 -31h451q22 8 43 13q34 12 47 39q12 31 43 86q32 0 21 2q19 -4 29 -29q-5 -68 -10 -175q0 -71 -17 -207
q-5 -19 -48 -14q-14 30 -55 76q-24 20 -74 39q-43 17 -58 17h-166q-16 0 -61 6t-67 6q-65 0 -81 -37q-19 -43 -19 -64q0 -22 8 -84q9 -58 7 -90q-1 -17 -12 -65q-9 -45 -9 -70q0 -20 4 -37q9 -29 66.5 -69.5t96.5 -45.5q7 -3 12 -6q14 -4 22 -4h199q66 0 113 21
q63 29 122 97q67 74 71 140q30 21 79 7zM515 1786q-48 7 -86 -17.5t-45 -64.5q-9 -61 161 -131q132 -55 211.5 -89t104.5 -50l32 -5l6 38q-48 62 -173 173q-157 137 -211 146z" />
    <glyph glyph-name="Iacute" unicode="&#xcd;" horiz-adv-x="715" 
d="M824 1405q-5 -18 -21 -50q-1 0 -95 -17q-61 -11 -75 -42q-13 -14 -32 -41q-3 -9 -40 -142l-7 -630q-11 -31 -11 -35q0 2 11 -26l-4 -189q-11 -38 0 -107q11 -79 44 -129q11 -18 57 -38q81 -36 162 -35q0 -17 -17 -48h-184q-3 0 -52.5 3.5t-53.5 3.5t-41.5 -3.5
t-43.5 -3.5q-2 0 -28.5 3.5t-31.5 3.5q-4 0 -20.5 -3.5t-20.5 -3.5l-331 -4q-42 0 -42 23q0 29 21 34q51 8 102 14q59 10 75 33q8 14 19 45q22 -1 68 -8q17 51 17 65q0 13 -17 36q13 25 4 42q-6 12 -28 41q-20 26 -20 29q0 -8 26 75q3 8 -9 26q27 34 27 48q0 2 -9 79
q0 7 -11 24t-11 20q0 6 13 16q-2 -4 -2 14v149q0 3 6 21.5t6 21.5t-4.5 9.5t-4.5 10.5q-1 18 4 119q2 12 -1.5 40.5l-3.5 28.5v149q0 13 -23 38q6 13 -11 51q0 16 -10 52q-11 11 -32 31q-7 12 -22 36q-31 38 -60 49q-35 6 -109 27q4 17 16 44h15q4 0 29.5 -2t29.5 -2h608z
M627 1660q23 43 13 87t-45 65q-54 29 -178 -107q-97 -106 -156 -169t-82 -81l-16 -28l34 -19q74 24 221 104q183 101 209 148z" />
    <glyph glyph-name="Icircumflex" unicode="&#xce;" horiz-adv-x="715" 
d="M824 1405q-5 -18 -21 -50q-1 0 -95 -17q-61 -11 -75 -42q-13 -14 -32 -41q-3 -9 -40 -142l-7 -630q-11 -31 -11 -35q0 2 11 -26l-4 -189q-11 -38 0 -107q11 -79 44 -129q11 -18 57 -38q81 -36 162 -35q0 -17 -17 -48h-184q-3 0 -52.5 3.5t-53.5 3.5t-41.5 -3.5
t-43.5 -3.5q-2 0 -28.5 3.5t-31.5 3.5q-4 0 -20.5 -3.5t-20.5 -3.5l-331 -4q-42 0 -42 23q0 29 21 34q51 8 102 14q59 10 75 33q8 14 19 45q22 -1 68 -8q17 51 17 65q0 13 -17 36q13 25 4 42q-6 12 -28 41q-20 26 -20 29q0 -8 26 75q3 8 -9 26q27 34 27 48q0 2 -9 79
q0 7 -11 24t-11 20q0 6 13 16q-2 -4 -2 14v149q0 3 6 21.5t6 21.5t-4.5 9.5t-4.5 10.5q-1 18 4 119q2 12 -1.5 40.5l-3.5 28.5v149q0 13 -23 38q6 13 -11 51q0 16 -10 52q-11 11 -32 31q-7 12 -22 36q-31 38 -60 49q-35 6 -109 27q4 17 16 44h15q4 0 29.5 -2t29.5 -2h608z
M107 1515l120 123q0 11 78 11v4l-55 7q17 38 30 38q0 38 49 53h109q19 -34 72 -81l158 -162l-6 -20h-113l-32 20q-54 81 -70 81q-29 49 -40 49l-23 -35l-72 -98l-32 -21l-133 3v-3l-8 -4l-32 4l-24 -4q-4 21 24 35z" />
    <glyph glyph-name="Idieresis" unicode="&#xcf;" horiz-adv-x="792" 
d="M824 1405q-5 -18 -21 -50q-1 0 -95 -17q-61 -11 -75 -42q-13 -14 -32 -41q-3 -9 -40 -142l-7 -630q-11 -31 -11 -35q0 2 11 -26l-4 -189q-11 -38 0 -107q11 -79 44 -129q11 -18 57 -38q81 -36 162 -35q0 -17 -17 -48h-184q-3 0 -52.5 3.5t-53.5 3.5t-41.5 -3.5
t-43.5 -3.5q-2 0 -28.5 3.5t-31.5 3.5q-4 0 -20.5 -3.5t-20.5 -3.5l-331 -4q-42 0 -42 23q0 29 21 34q51 8 102 14q59 10 75 33q8 14 19 45q22 -1 68 -8q17 51 17 65q0 13 -17 36q13 25 4 42q-6 12 -28 41q-20 26 -20 29q0 -8 26 75q3 8 -9 26q27 34 27 48q0 2 -9 79
q0 7 -11 24t-11 20q0 6 13 16q-2 -4 -2 14v149q0 3 6 21.5t6 21.5t-4.5 9.5t-4.5 10.5q-1 18 4 119q2 12 -1.5 40.5l-3.5 28.5v149q0 13 -23 38q6 13 -11 51q0 16 -10 52q-11 11 -32 31q-7 12 -22 36q-31 38 -60 49q-35 6 -109 27q4 17 16 44h15q4 0 29.5 -2t29.5 -2h608z
M407 1623q0 39 -31 68.5t-78 29.5q-43 0 -70.5 -31.5t-27.5 -81.5q0 -38 12 -77q15 -58 45 -58q39 0 94.5 55.5t55.5 94.5zM650 1618q0 43 -32.5 72t-75.5 29q-98 0 -98 -113q0 -39 12 -78q14 -57 45 -57q37 0 92 55q57 56 57 92z" />
    <glyph glyph-name="Igrave" unicode="&#xcc;" horiz-adv-x="715" 
d="M824 1405q-5 -18 -21 -50q-1 0 -95 -17q-61 -11 -75 -42q-13 -14 -32 -41q-3 -9 -40 -142l-7 -630q-11 -31 -11 -35q0 2 11 -26l-4 -189q-11 -38 0 -107q11 -79 44 -129q11 -18 57 -38q81 -36 162 -35q0 -17 -17 -48h-184q-3 0 -52.5 3.5t-53.5 3.5t-41.5 -3.5
t-43.5 -3.5q-2 0 -28.5 3.5t-31.5 3.5q-4 0 -20.5 -3.5t-20.5 -3.5l-331 -4q-42 0 -42 23q0 29 21 34q51 8 102 14q59 10 75 33q8 14 19 45q22 -1 68 -8q17 51 17 65q0 13 -17 36q13 25 4 42q-6 12 -28 41q-20 26 -20 29q0 -8 26 75q3 8 -9 26q27 34 27 48q0 2 -9 79
q0 7 -11 24t-11 20q0 6 13 16q-2 -4 -2 14v149q0 3 6 21.5t6 21.5t-4.5 9.5t-4.5 10.5q-1 18 4 119q2 12 -1.5 40.5l-3.5 28.5v149q0 13 -23 38q6 13 -11 51q0 16 -10 52q-11 11 -32 31q-7 12 -22 36q-31 38 -60 49q-35 6 -109 27q4 17 16 44h15q4 0 29.5 -2t29.5 -2h608z
M253 1818q-48 7 -86 -17.5t-45 -64.5q-9 -61 161 -131q132 -55 211.5 -89t104.5 -50l32 -5l6 38q-48 62 -173 173q-157 137 -211 146z" />
    <glyph glyph-name="Oacute" unicode="&#xd3;" horiz-adv-x="1565" 
d="M1552 764q-29 -22 0 -71q-5 -148 -11 -178q-18 -99 -78 -136q-8 -12 -8 -41.5t-6 -41.5q-121 -194 -294 -310q-189 -127 -387 -114q-28 -6 -60 -6t-231 46q-21 6 -60.5 36.5t-66.5 30.5q-13 0 -26 -6q-66 59 -131 117q-74 71 -95 148q-26 6 -42 41.5t-29 68.5
q-8 13 -8 28q0 22 13 52.5t13 43.5q0 24 -39 33q8 225 11 249q13 142 63 228q71 55 68 120q145 157 229 218q136 105 278 108l45 15q168 -6 337 -15q192 -18 297 -123l68 -61q42 -37 37 -90q108 -126 113 -390zM1181 558q15 28 15 68q0 30 -15 97t-13 99q-31 17 -49.5 69.5
t-35.5 71.5q-18 53 -70 105q0 2 -99 86l-148 24q-57 -12 -113 -21q-66 -19 -94 -61q-5 -24 -29 -61q-48 -9 -67 -70q-27 -75 -46 -91q-31 -115 -31 -176q0 -28 5 -51q6 -68 10 -133q7 -82 48 -117q7 -54 62 -98q78 -61 91 -80q18 -5 68 -30q41 -21 70 -21q11 0 24 2
q68 5 133 7q83 7 120 52q144 95 164 329zM1116 1696q24 42 16 86.5t-42 66.5q-53 31 -183 -99q-101 -101 -162.5 -162t-86.5 -78l-16 -27l33 -20q75 21 225 94q187 93 216 139z" />
    <glyph glyph-name="Ocircumflex" unicode="&#xd4;" horiz-adv-x="1565" 
d="M1552 764q-29 -22 0 -71q-5 -148 -11 -178q-18 -99 -78 -136q-8 -12 -8 -41.5t-6 -41.5q-121 -194 -294 -310q-189 -127 -387 -114q-28 -6 -60 -6t-231 46q-21 6 -60.5 36.5t-66.5 30.5q-13 0 -26 -6q-66 59 -131 117q-74 71 -95 148q-26 6 -42 41.5t-29 68.5
q-8 13 -8 28q0 22 13 52.5t13 43.5q0 24 -39 33q8 225 11 249q13 142 63 228q71 55 68 120q145 157 229 218q136 105 278 108l45 15q168 -6 337 -15q192 -18 297 -123l68 -61q42 -37 37 -90q108 -126 113 -390zM1181 558q15 28 15 68q0 30 -15 97t-13 99q-31 17 -49.5 69.5
t-35.5 71.5q-18 53 -70 105q0 2 -99 86l-148 24q-57 -12 -113 -21q-66 -19 -94 -61q-5 -24 -29 -61q-48 -9 -67 -70q-27 -75 -46 -91q-31 -115 -31 -176q0 -28 5 -51q6 -68 10 -133q7 -82 48 -117q7 -54 62 -98q78 -61 91 -80q18 -5 68 -30q41 -21 70 -21q11 0 24 2
q68 5 133 7q83 7 120 52q144 95 164 329zM502 1528l120 123q0 11 78 11v4l-55 7q17 38 30 38q0 38 49 53h109q19 -34 72 -81l158 -162l-6 -20h-113l-32 20q-54 81 -70 81q-29 49 -40 49l-23 -35l-72 -98l-32 -21l-133 3v-3l-8 -4l-32 4l-24 -4q-4 21 24 35z" />
    <glyph glyph-name="Ograve" unicode="&#xd2;" horiz-adv-x="1565" 
d="M1552 764q-29 -22 0 -71q-5 -148 -11 -178q-18 -99 -78 -136q-8 -12 -8 -41.5t-6 -41.5q-121 -194 -294 -310q-189 -127 -387 -114q-28 -6 -60 -6t-231 46q-21 6 -60.5 36.5t-66.5 30.5q-13 0 -26 -6q-66 59 -131 117q-74 71 -95 148q-26 6 -42 41.5t-29 68.5
q-8 13 -8 28q0 22 13 52.5t13 43.5q0 24 -39 33q8 225 11 249q13 142 63 228q71 55 68 120q145 157 229 218q136 105 278 108l45 15q168 -6 337 -15q192 -18 297 -123l68 -61q42 -37 37 -90q108 -126 113 -390zM1181 558q15 28 15 68q0 30 -15 97t-13 99q-31 17 -49.5 69.5
t-35.5 71.5q-18 53 -70 105q0 2 -99 86l-148 24q-57 -12 -113 -21q-66 -19 -94 -61q-5 -24 -29 -61q-48 -9 -67 -70q-27 -75 -46 -91q-31 -115 -31 -176q0 -28 5 -51q6 -68 10 -133q7 -82 48 -117q7 -54 62 -98q78 -61 91 -80q18 -5 68 -30q41 -21 70 -21q11 0 24 2
q68 5 133 7q83 7 120 52q144 95 164 329zM630 1811q-48 7 -86 -17.5t-45 -64.5q-9 -61 161 -131q132 -55 211.5 -89t104.5 -50l32 -5l6 38q-48 62 -173 173q-157 137 -211 146z" />
    <glyph glyph-name="Asterisk" unicode="*" horiz-adv-x="679" 
d="M635 1202q-6 21 -16.5 47.5t-24.5 61.5q-12 55 -35 55q-16 -4 -39 -41q-35 -55 -98 -55q-35 0 -35 55q0 33 27 78l26 47q0 29 -28 25l-29 -2q-4 -3 -31 -3h-14l-41 3l-27 2q-33 2 -33 -23q5 -12 9 -16q45 -58 45 -109q0 -59 -25 -59q-69 0 -113 55q-30 41 -43 41
q-18 0 -53 -127q-10 -27 -10 -39q0 -18 18 -18l23 4q29 4 45 7t20 3q21 0 56 -10q41 -13 41 -31q-8 -51 -103 -84q-47 -16 -47 -31q0 -10 45 -49q23 -18 37.5 -30.5t18.5 -16.5q20 -27 39 -27q18 0 28 50q21 125 74 125q24 0 49 -46q18 -34 25 -67l8 -49q2 -8 16 -8
q17 0 39 24l35 39l39 25q31 18 31 32q0 21 -45 29q-25 2 -62 31q-37 26 -37 49q2 45 96 45l31 -4l47 -10q21 0 21 22z" />
    <glyph glyph-name="Uacute" unicode="&#xda;" horiz-adv-x="1443" 
d="M1571 1482q0 -48 -16 -49q-25 -3 -73 -15q-21 0 -58 -14q-41 -39 -49 -113q-5 -7 -10 -20q-8 -70 -5 -89q19 -115 19 -117v-97q0 -4 -4.5 -18.5t-6.5 -19.5q0 -11 2 -35q13 -101 13 -265q0 -2 -5 -8t-5 -12t2 -48q2 -31 0 -48q-5 -67 -24 -200q-7 -39 -45 -117
q-37 -80 -62 -116q-31 -38 -115 -97q-67 -46 -132 -93q-11 9 -31 9q-13 0 -81 -19q-17 -10 -56 -28q-7 -2 -21 5t-15 7h-97q18 0 -66 16q-29 2 -84 10q-34 18 -102 45q-22 2 -63 7q-13 2 -50 22q-234 133 -243 451l-12 400q-10 166 -36 494q-9 72 -56 102q-27 18 -63 24
q-29 6 -61 12q-3 9 -3 14q0 24 43 17q101 -11 231 -11h88q3 0 89.5 1.5t104.5 1.5q63 -2 183 6q13 -13 13 -24q0 -16 -34 -24q-23 -3 -47 -8q-6 -6 -22 -16q-11 -5 -28 -15q-20 -17 -25 -32q-12 -89 -42 -249q2 3 14 -41l-12 -67q6 -21 -5 13q-3 -13 5 -44q6 -42 8 -50
q1 -17 -6 -111q0 -6 6 -17q0 -6 -8 -93q-5 -28 9 -120q8 -10 17 -30q2 -6 8 -87q-2 -15 0 -46q5 -14 15 -38q5 -10 -2 -32q16 -21 45 -61q15 -28 63 -77q115 -81 183 -92q34 -5 81 -5h-79q72 0 156 81q82 79 103 157q10 70 25 172q11 64 0 178l5 486q-8 61 -28 173
q-14 40 -99 63q-16 3 -55 11q-8 13 -8 33q-5 0 39 5q98 11 186 -8q16 5 43 7q181 -3 206 -3q18 0 42 5q28 5 41 7q4 1 18.5 -2.5t20.5 -3.5q12 0 123 10zM1116 1664q24 42 16 86.5t-42 66.5q-53 31 -183 -99q-101 -101 -162.5 -162t-86.5 -78l-16 -27l33 -20q75 21 225 94
q187 93 216 139z" />
    <glyph glyph-name="Ucircumflex" unicode="&#xdb;" horiz-adv-x="1443" 
d="M1571 1482q0 -48 -16 -49q-25 -3 -73 -15q-21 0 -58 -14q-41 -39 -49 -113q-5 -7 -10 -20q-8 -70 -5 -89q19 -115 19 -117v-97q0 -4 -4.5 -18.5t-6.5 -19.5q0 -11 2 -35q13 -101 13 -265q0 -2 -5 -8t-5 -12t2 -48q2 -31 0 -48q-5 -67 -24 -200q-7 -39 -45 -117
q-37 -80 -62 -116q-31 -38 -115 -97q-67 -46 -132 -93q-11 9 -31 9q-13 0 -81 -19q-17 -10 -56 -28q-7 -2 -21 5t-15 7h-97q18 0 -66 16q-29 2 -84 10q-34 18 -102 45q-22 2 -63 7q-13 2 -50 22q-234 133 -243 451l-12 400q-10 166 -36 494q-9 72 -56 102q-27 18 -63 24
q-29 6 -61 12q-3 9 -3 14q0 24 43 17q101 -11 231 -11h88q3 0 89.5 1.5t104.5 1.5q63 -2 183 6q13 -13 13 -24q0 -16 -34 -24q-23 -3 -47 -8q-6 -6 -22 -16q-11 -5 -28 -15q-20 -17 -25 -32q-12 -89 -42 -249q2 3 14 -41l-12 -67q6 -21 -5 13q-3 -13 5 -44q6 -42 8 -50
q1 -17 -6 -111q0 -6 6 -17q0 -6 -8 -93q-5 -28 9 -120q8 -10 17 -30q2 -6 8 -87q-2 -15 0 -46q5 -14 15 -38q5 -10 -2 -32q16 -21 45 -61q15 -28 63 -77q115 -81 183 -92q34 -5 81 -5h-79q72 0 156 81q82 79 103 157q10 70 25 172q11 64 0 178l5 486q-8 61 -28 173
q-14 40 -99 63q-16 3 -55 11q-8 13 -8 33q-5 0 39 5q98 11 186 -8q16 5 43 7q181 -3 206 -3q18 0 42 5q28 5 41 7q4 1 18.5 -2.5t20.5 -3.5q12 0 123 10zM471 1566l120 123q0 11 78 11v4l-55 7q17 38 30 38q0 38 49 53h109q19 -34 72 -81l158 -162l-6 -20h-113l-32 20
q-54 81 -70 81q-29 49 -40 49l-23 -35l-72 -98l-32 -21l-133 3v-3l-8 -4l-32 4l-24 -4q-4 21 24 35z" />
    <glyph glyph-name="Ugrave" unicode="&#xd9;" horiz-adv-x="1443" 
d="M1571 1482q0 -48 -16 -49q-25 -3 -73 -15q-21 0 -58 -14q-41 -39 -49 -113q-5 -7 -10 -20q-8 -70 -5 -89q19 -115 19 -117v-97q0 -4 -4.5 -18.5t-6.5 -19.5q0 -11 2 -35q13 -101 13 -265q0 -2 -5 -8t-5 -12t2 -48q2 -31 0 -48q-5 -67 -24 -200q-7 -39 -45 -117
q-37 -80 -62 -116q-31 -38 -115 -97q-67 -46 -132 -93q-11 9 -31 9q-13 0 -81 -19q-17 -10 -56 -28q-7 -2 -21 5t-15 7h-97q18 0 -66 16q-29 2 -84 10q-34 18 -102 45q-22 2 -63 7q-13 2 -50 22q-234 133 -243 451l-12 400q-10 166 -36 494q-9 72 -56 102q-27 18 -63 24
q-29 6 -61 12q-3 9 -3 14q0 24 43 17q101 -11 231 -11h88q3 0 89.5 1.5t104.5 1.5q63 -2 183 6q13 -13 13 -24q0 -16 -34 -24q-23 -3 -47 -8q-6 -6 -22 -16q-11 -5 -28 -15q-20 -17 -25 -32q-12 -89 -42 -249q2 3 14 -41l-12 -67q6 -21 -5 13q-3 -13 5 -44q6 -42 8 -50
q1 -17 -6 -111q0 -6 6 -17q0 -6 -8 -93q-5 -28 9 -120q8 -10 17 -30q2 -6 8 -87q-2 -15 0 -46q5 -14 15 -38q5 -10 -2 -32q16 -21 45 -61q15 -28 63 -77q115 -81 183 -92q34 -5 81 -5h-79q72 0 156 81q82 79 103 157q10 70 25 172q11 64 0 178l5 486q-8 61 -28 173
q-14 40 -99 63q-16 3 -55 11q-8 13 -8 33q-5 0 39 5q98 11 186 -8q16 5 43 7q181 -3 206 -3q18 0 42 5q28 5 41 7q4 1 18.5 -2.5t20.5 -3.5q12 0 123 10zM1103 1677q24 42 16 86.5t-42 66.5q-53 31 -183 -99q-101 -101 -162.5 -162t-86.5 -78l-16 -27l33 -20q75 21 225 94
q187 93 216 139z" />
    <glyph glyph-name="circumflex" unicode="&#x2c6;" horiz-adv-x="682" 
d="M69 1107l119 135q0 12 78 12v4l-55 8q17 42 31 42q0 41 48 58h110q18 -38 71 -89l159 -177l-6 -23h-114l-31 23q-54 89 -71 89q-28 53 -39 53l-23 -38l-72 -108l-32 -23l-134 4v-4l-7 -4l-32 4l-25 -4q-4 23 25 38z" />
    <glyph glyph-name="tilde" unicode="&#x2dc;" horiz-adv-x="682" 
d="M54 1097h-32q4 137 57 198t131 61q41 0 53 -7q-155 -129 54 -19q13 -4 95.5 -58.5t122.5 -54.5q30 -82 16 0q16 0 40.5 27t38.5 112h31q1 -93 -24.5 -147.5t-72 -85t-93.5 -30.5q-79 0 -188 78q8 33 -39 24q-32 21 -54 30t-43 9q-41 0 -65 -36q-11 -17 -28 -101z" />
    <glyph glyph-name="cedilla" unicode="&#xb8;" horiz-adv-x="682" 
d="M361 16h60l-50 -79q63 -16 94 -54t31 -92q0 -72 -60 -126.5t-155 -54.5q-37 0 -94 7v43q28 -4 48 -4q51 0 86 33.5t35 76.5q0 30 -23 52t-57 22q-10 0 -26 -2z" />
  </font>
</defs>
</svg>
